<mxfile host="Electron" agent="Mozilla/5.0 (Windows NT 10.0; Win64; x64) AppleWebKit/537.36 (KHTML, like Gecko) draw.io/24.7.17 Chrome/128.0.6613.36 Electron/32.0.1 Safari/537.36" version="24.7.17" pages="6">
  <diagram name="Page-1" id="kY_w3LM8Y94Qa3dA3ehb">
    <mxGraphModel dx="2284" dy="3054" grid="1" gridSize="10" guides="1" tooltips="1" connect="1" arrows="1" fold="1" page="1" pageScale="1" pageWidth="850" pageHeight="1100" math="0" shadow="0">
      <root>
        <mxCell id="0" />
        <mxCell id="1" parent="0" />
        <mxCell id="64B-MYcMhY1m8WwcN2P--31" value="user sign up or login" style="text;html=1;align=center;verticalAlign=middle;resizable=0;points=[];autosize=1;strokeColor=none;fillColor=none;" parent="1" vertex="1">
          <mxGeometry x="-5" y="-1780" width="130" height="30" as="geometry" />
        </mxCell>
        <mxCell id="64B-MYcMhY1m8WwcN2P--32" value="post Recipe" style="text;html=1;align=center;verticalAlign=middle;resizable=0;points=[];autosize=1;strokeColor=none;fillColor=none;" parent="1" vertex="1">
          <mxGeometry x="15" y="-1302" width="90" height="30" as="geometry" />
        </mxCell>
        <mxCell id="64B-MYcMhY1m8WwcN2P--38" value="user" style="shape=umlLifeline;perimeter=lifelinePerimeter;whiteSpace=wrap;html=1;container=1;dropTarget=0;collapsible=0;recursiveResize=0;outlineConnect=0;portConstraint=eastwest;newEdgeStyle={&quot;curved&quot;:0,&quot;rounded&quot;:0};participant=umlActor;" parent="1" vertex="1">
          <mxGeometry x="55" y="-1240" width="20" height="300" as="geometry" />
        </mxCell>
        <mxCell id="64B-MYcMhY1m8WwcN2P--41" value="" style="html=1;points=[[0,0,0,0,5],[0,1,0,0,-5],[1,0,0,0,5],[1,1,0,0,-5]];perimeter=orthogonalPerimeter;outlineConnect=0;targetShapes=umlLifeline;portConstraint=eastwest;newEdgeStyle={&quot;curved&quot;:0,&quot;rounded&quot;:0};" parent="64B-MYcMhY1m8WwcN2P--38" vertex="1">
          <mxGeometry x="5" y="80" width="10" height="80" as="geometry" />
        </mxCell>
        <mxCell id="64B-MYcMhY1m8WwcN2P--39" value="System" style="shape=umlLifeline;perimeter=lifelinePerimeter;whiteSpace=wrap;html=1;container=1;dropTarget=0;collapsible=0;recursiveResize=0;outlineConnect=0;portConstraint=eastwest;newEdgeStyle={&quot;curved&quot;:0,&quot;rounded&quot;:0};" parent="1" vertex="1">
          <mxGeometry x="240" y="-1240" width="100" height="300" as="geometry" />
        </mxCell>
        <mxCell id="64B-MYcMhY1m8WwcN2P--42" value="" style="html=1;points=[[0,0,0,0,5],[0,1,0,0,-5],[1,0,0,0,5],[1,1,0,0,-5]];perimeter=orthogonalPerimeter;outlineConnect=0;targetShapes=umlLifeline;portConstraint=eastwest;newEdgeStyle={&quot;curved&quot;:0,&quot;rounded&quot;:0};" parent="64B-MYcMhY1m8WwcN2P--39" vertex="1">
          <mxGeometry x="45" y="80" width="10" height="80" as="geometry" />
        </mxCell>
        <mxCell id="64B-MYcMhY1m8WwcN2P--59" value="" style="html=1;points=[[0,0,0,0,5],[0,1,0,0,-5],[1,0,0,0,5],[1,1,0,0,-5]];perimeter=orthogonalPerimeter;outlineConnect=0;targetShapes=umlLifeline;portConstraint=eastwest;newEdgeStyle={&quot;curved&quot;:0,&quot;rounded&quot;:0};" parent="64B-MYcMhY1m8WwcN2P--39" vertex="1">
          <mxGeometry x="45" y="220" width="10" height="80" as="geometry" />
        </mxCell>
        <mxCell id="64B-MYcMhY1m8WwcN2P--40" value="Database" style="shape=umlLifeline;perimeter=lifelinePerimeter;whiteSpace=wrap;html=1;container=1;dropTarget=0;collapsible=0;recursiveResize=0;outlineConnect=0;portConstraint=eastwest;newEdgeStyle={&quot;curved&quot;:0,&quot;rounded&quot;:0};" parent="1" vertex="1">
          <mxGeometry x="480" y="-1240" width="100" height="300" as="geometry" />
        </mxCell>
        <mxCell id="64B-MYcMhY1m8WwcN2P--43" value="" style="html=1;points=[[0,0,0,0,5],[0,1,0,0,-5],[1,0,0,0,5],[1,1,0,0,-5]];perimeter=orthogonalPerimeter;outlineConnect=0;targetShapes=umlLifeline;portConstraint=eastwest;newEdgeStyle={&quot;curved&quot;:0,&quot;rounded&quot;:0};" parent="64B-MYcMhY1m8WwcN2P--40" vertex="1">
          <mxGeometry x="45" y="80" width="10" height="80" as="geometry" />
        </mxCell>
        <mxCell id="64B-MYcMhY1m8WwcN2P--45" value="creates and submit recipe post" style="html=1;verticalAlign=bottom;endArrow=block;curved=0;rounded=0;" parent="1" source="64B-MYcMhY1m8WwcN2P--41" edge="1">
          <mxGeometry width="80" relative="1" as="geometry">
            <mxPoint x="140" y="-1130" as="sourcePoint" />
            <mxPoint x="280" y="-1130" as="targetPoint" />
            <Array as="points">
              <mxPoint x="160" y="-1130" />
            </Array>
          </mxGeometry>
        </mxCell>
        <mxCell id="64B-MYcMhY1m8WwcN2P--46" value="saves the recipe post" style="html=1;verticalAlign=bottom;endArrow=block;curved=0;rounded=0;" parent="1" edge="1">
          <mxGeometry width="80" relative="1" as="geometry">
            <mxPoint x="300" y="-1130" as="sourcePoint" />
            <mxPoint x="520" y="-1130" as="targetPoint" />
            <Array as="points" />
          </mxGeometry>
        </mxCell>
        <mxCell id="64B-MYcMhY1m8WwcN2P--48" value="confirms data saving" style="html=1;verticalAlign=bottom;endArrow=open;dashed=1;endSize=8;curved=0;rounded=0;" parent="1" edge="1">
          <mxGeometry relative="1" as="geometry">
            <mxPoint x="520" y="-1110" as="sourcePoint" />
            <mxPoint x="300" y="-1110" as="targetPoint" />
            <Array as="points">
              <mxPoint x="350" y="-1110" />
            </Array>
          </mxGeometry>
        </mxCell>
        <mxCell id="64B-MYcMhY1m8WwcN2P--51" value="confirms post submission" style="html=1;verticalAlign=bottom;endArrow=open;dashed=1;endSize=8;curved=0;rounded=0;" parent="1" edge="1">
          <mxGeometry relative="1" as="geometry">
            <mxPoint x="290" y="-1110" as="sourcePoint" />
            <mxPoint x="70" y="-1110" as="targetPoint" />
            <Array as="points">
              <mxPoint x="280" y="-1110" />
              <mxPoint x="120" y="-1110" />
            </Array>
          </mxGeometry>
        </mxCell>
        <mxCell id="64B-MYcMhY1m8WwcN2P--53" value="Notification service" style="shape=umlLifeline;perimeter=lifelinePerimeter;whiteSpace=wrap;html=1;container=1;dropTarget=0;collapsible=0;recursiveResize=0;outlineConnect=0;portConstraint=eastwest;newEdgeStyle={&quot;curved&quot;:0,&quot;rounded&quot;:0};" parent="1" vertex="1">
          <mxGeometry x="615" y="-1240" width="100" height="300" as="geometry" />
        </mxCell>
        <mxCell id="64B-MYcMhY1m8WwcN2P--54" value="" style="html=1;points=[[0,0,0,0,5],[0,1,0,0,-5],[1,0,0,0,5],[1,1,0,0,-5]];perimeter=orthogonalPerimeter;outlineConnect=0;targetShapes=umlLifeline;portConstraint=eastwest;newEdgeStyle={&quot;curved&quot;:0,&quot;rounded&quot;:0};" parent="64B-MYcMhY1m8WwcN2P--53" vertex="1">
          <mxGeometry x="45" y="210" width="10" height="80" as="geometry" />
        </mxCell>
        <mxCell id="64B-MYcMhY1m8WwcN2P--62" value="" style="endArrow=open;endFill=1;endSize=12;html=1;rounded=0;" parent="1" edge="1">
          <mxGeometry width="160" relative="1" as="geometry">
            <mxPoint x="330" y="-1100" as="sourcePoint" />
            <mxPoint x="490" y="-1100" as="targetPoint" />
            <Array as="points">
              <mxPoint x="410" y="-1100" />
            </Array>
          </mxGeometry>
        </mxCell>
        <mxCell id="64B-MYcMhY1m8WwcN2P--63" value="" style="endArrow=open;endFill=1;endSize=12;html=1;rounded=0;" parent="1" edge="1">
          <mxGeometry width="160" relative="1" as="geometry">
            <mxPoint x="300" y="-970" as="sourcePoint" />
            <mxPoint x="660" y="-970" as="targetPoint" />
            <Array as="points" />
          </mxGeometry>
        </mxCell>
        <mxCell id="64B-MYcMhY1m8WwcN2P--64" value="notifies followers for new&amp;nbsp; post" style="edgeLabel;html=1;align=center;verticalAlign=middle;resizable=0;points=[];" parent="64B-MYcMhY1m8WwcN2P--63" vertex="1" connectable="0">
          <mxGeometry x="-0.1222" y="1" relative="1" as="geometry">
            <mxPoint as="offset" />
          </mxGeometry>
        </mxCell>
        <mxCell id="64B-MYcMhY1m8WwcN2P--65" value="Follow Other Users" style="text;html=1;align=center;verticalAlign=middle;resizable=0;points=[];autosize=1;strokeColor=none;fillColor=none;" parent="1" vertex="1">
          <mxGeometry x="5" y="-912" width="130" height="30" as="geometry" />
        </mxCell>
        <mxCell id="64B-MYcMhY1m8WwcN2P--66" value="user" style="shape=umlLifeline;perimeter=lifelinePerimeter;whiteSpace=wrap;html=1;container=1;dropTarget=0;collapsible=0;recursiveResize=0;outlineConnect=0;portConstraint=eastwest;newEdgeStyle={&quot;curved&quot;:0,&quot;rounded&quot;:0};participant=umlActor;" parent="1" vertex="1">
          <mxGeometry x="55" y="-870" width="20" height="300" as="geometry" />
        </mxCell>
        <mxCell id="64B-MYcMhY1m8WwcN2P--72" value="" style="html=1;points=[[0,0,0,0,5],[0,1,0,0,-5],[1,0,0,0,5],[1,1,0,0,-5]];perimeter=orthogonalPerimeter;outlineConnect=0;targetShapes=umlLifeline;portConstraint=eastwest;newEdgeStyle={&quot;curved&quot;:0,&quot;rounded&quot;:0};" parent="64B-MYcMhY1m8WwcN2P--66" vertex="1">
          <mxGeometry x="5" y="80" width="10" height="80" as="geometry" />
        </mxCell>
        <mxCell id="64B-MYcMhY1m8WwcN2P--67" value="system" style="shape=umlLifeline;perimeter=lifelinePerimeter;whiteSpace=wrap;html=1;container=1;dropTarget=0;collapsible=0;recursiveResize=0;outlineConnect=0;portConstraint=eastwest;newEdgeStyle={&quot;curved&quot;:0,&quot;rounded&quot;:0};" parent="1" vertex="1">
          <mxGeometry x="200" y="-882" width="100" height="300" as="geometry" />
        </mxCell>
        <mxCell id="64B-MYcMhY1m8WwcN2P--73" value="" style="html=1;points=[[0,0,0,0,5],[0,1,0,0,-5],[1,0,0,0,5],[1,1,0,0,-5]];perimeter=orthogonalPerimeter;outlineConnect=0;targetShapes=umlLifeline;portConstraint=eastwest;newEdgeStyle={&quot;curved&quot;:0,&quot;rounded&quot;:0};" parent="64B-MYcMhY1m8WwcN2P--67" vertex="1">
          <mxGeometry x="45" y="92" width="10" height="80" as="geometry" />
        </mxCell>
        <mxCell id="64B-MYcMhY1m8WwcN2P--90" value="" style="html=1;points=[[0,0,0,0,5],[0,1,0,0,-5],[1,0,0,0,5],[1,1,0,0,-5]];perimeter=orthogonalPerimeter;outlineConnect=0;targetShapes=umlLifeline;portConstraint=eastwest;newEdgeStyle={&quot;curved&quot;:0,&quot;rounded&quot;:0};" parent="64B-MYcMhY1m8WwcN2P--67" vertex="1">
          <mxGeometry x="45" y="202" width="10" height="80" as="geometry" />
        </mxCell>
        <mxCell id="64B-MYcMhY1m8WwcN2P--68" value="database" style="shape=umlLifeline;perimeter=lifelinePerimeter;whiteSpace=wrap;html=1;container=1;dropTarget=0;collapsible=0;recursiveResize=0;outlineConnect=0;portConstraint=eastwest;newEdgeStyle={&quot;curved&quot;:0,&quot;rounded&quot;:0};" parent="1" vertex="1">
          <mxGeometry x="360" y="-882" width="100" height="300" as="geometry" />
        </mxCell>
        <mxCell id="64B-MYcMhY1m8WwcN2P--74" value="" style="html=1;points=[[0,0,0,0,5],[0,1,0,0,-5],[1,0,0,0,5],[1,1,0,0,-5]];perimeter=orthogonalPerimeter;outlineConnect=0;targetShapes=umlLifeline;portConstraint=eastwest;newEdgeStyle={&quot;curved&quot;:0,&quot;rounded&quot;:0};" parent="64B-MYcMhY1m8WwcN2P--68" vertex="1">
          <mxGeometry x="45" y="92" width="10" height="80" as="geometry" />
        </mxCell>
        <mxCell id="64B-MYcMhY1m8WwcN2P--69" value="notification service" style="shape=umlLifeline;perimeter=lifelinePerimeter;whiteSpace=wrap;html=1;container=1;dropTarget=0;collapsible=0;recursiveResize=0;outlineConnect=0;portConstraint=eastwest;newEdgeStyle={&quot;curved&quot;:0,&quot;rounded&quot;:0};" parent="1" vertex="1">
          <mxGeometry x="540" y="-882" width="100" height="300" as="geometry" />
        </mxCell>
        <mxCell id="64B-MYcMhY1m8WwcN2P--75" value="" style="html=1;points=[[0,0,0,0,5],[0,1,0,0,-5],[1,0,0,0,5],[1,1,0,0,-5]];perimeter=orthogonalPerimeter;outlineConnect=0;targetShapes=umlLifeline;portConstraint=eastwest;newEdgeStyle={&quot;curved&quot;:0,&quot;rounded&quot;:0};" parent="64B-MYcMhY1m8WwcN2P--69" vertex="1">
          <mxGeometry x="45" y="82" width="10" height="80" as="geometry" />
        </mxCell>
        <mxCell id="64B-MYcMhY1m8WwcN2P--91" value="" style="html=1;points=[[0,0,0,0,5],[0,1,0,0,-5],[1,0,0,0,5],[1,1,0,0,-5]];perimeter=orthogonalPerimeter;outlineConnect=0;targetShapes=umlLifeline;portConstraint=eastwest;newEdgeStyle={&quot;curved&quot;:0,&quot;rounded&quot;:0};" parent="64B-MYcMhY1m8WwcN2P--69" vertex="1">
          <mxGeometry x="45" y="202" width="10" height="80" as="geometry" />
        </mxCell>
        <mxCell id="64B-MYcMhY1m8WwcN2P--78" value="" style="endArrow=block;endFill=1;html=1;edgeStyle=orthogonalEdgeStyle;align=left;verticalAlign=top;rounded=0;" parent="1" edge="1">
          <mxGeometry x="-1" relative="1" as="geometry">
            <mxPoint x="75" y="-750" as="sourcePoint" />
            <mxPoint x="235" y="-750" as="targetPoint" />
          </mxGeometry>
        </mxCell>
        <mxCell id="64B-MYcMhY1m8WwcN2P--81" value="sends follow request" style="edgeLabel;html=1;align=center;verticalAlign=middle;resizable=0;points=[];" parent="64B-MYcMhY1m8WwcN2P--78" vertex="1" connectable="0">
          <mxGeometry x="-0.3125" y="2" relative="1" as="geometry">
            <mxPoint as="offset" />
          </mxGeometry>
        </mxCell>
        <mxCell id="64B-MYcMhY1m8WwcN2P--83" value="" style="endArrow=block;endFill=1;html=1;edgeStyle=orthogonalEdgeStyle;align=left;verticalAlign=top;rounded=0;" parent="1" edge="1">
          <mxGeometry x="-1" relative="1" as="geometry">
            <mxPoint x="250" y="-750" as="sourcePoint" />
            <mxPoint x="410" y="-750" as="targetPoint" />
            <Array as="points">
              <mxPoint x="270" y="-750" />
              <mxPoint x="270" y="-750" />
            </Array>
          </mxGeometry>
        </mxCell>
        <mxCell id="64B-MYcMhY1m8WwcN2P--85" value="update&amp;nbsp; following&amp;nbsp;" style="text;html=1;align=center;verticalAlign=middle;resizable=0;points=[];autosize=1;strokeColor=none;fillColor=none;" parent="1" vertex="1">
          <mxGeometry x="250" y="-772" width="120" height="30" as="geometry" />
        </mxCell>
        <mxCell id="64B-MYcMhY1m8WwcN2P--86" value="&lt;div&gt;&lt;br&gt;&lt;/div&gt;&lt;div&gt;&lt;br&gt;&lt;/div&gt;&lt;div&gt;&lt;br&gt;&lt;/div&gt;&lt;div&gt;&lt;br&gt;&lt;/div&gt;" style="html=1;verticalAlign=bottom;endArrow=open;dashed=1;endSize=8;curved=0;rounded=0;" parent="1" source="64B-MYcMhY1m8WwcN2P--68" target="64B-MYcMhY1m8WwcN2P--67" edge="1">
          <mxGeometry relative="1" as="geometry">
            <mxPoint x="360" y="-720.5" as="sourcePoint" />
            <mxPoint x="280" y="-720.5" as="targetPoint" />
            <Array as="points">
              <mxPoint x="300" y="-720" />
            </Array>
          </mxGeometry>
        </mxCell>
        <mxCell id="64B-MYcMhY1m8WwcN2P--87" value="&amp;nbsp; &amp;nbsp; &amp;nbsp; &amp;nbsp; &amp;nbsp;confirms the update" style="text;html=1;align=center;verticalAlign=middle;resizable=0;points=[];autosize=1;strokeColor=none;fillColor=none;" parent="1" vertex="1">
          <mxGeometry x="220" y="-742" width="160" height="30" as="geometry" />
        </mxCell>
        <mxCell id="64B-MYcMhY1m8WwcN2P--92" value="" style="endArrow=open;endFill=1;endSize=12;html=1;rounded=0;" parent="1" edge="1">
          <mxGeometry width="160" relative="1" as="geometry">
            <mxPoint x="257" y="-630" as="sourcePoint" />
            <mxPoint x="580" y="-630" as="targetPoint" />
            <Array as="points" />
          </mxGeometry>
        </mxCell>
        <mxCell id="64B-MYcMhY1m8WwcN2P--93" value="sends notfication to the followed user" style="edgeLabel;html=1;align=center;verticalAlign=middle;resizable=0;points=[];" parent="64B-MYcMhY1m8WwcN2P--92" vertex="1" connectable="0">
          <mxGeometry x="-0.1222" y="1" relative="1" as="geometry">
            <mxPoint as="offset" />
          </mxGeometry>
        </mxCell>
        <mxCell id="64B-MYcMhY1m8WwcN2P--94" value="admin user management" style="text;html=1;align=center;verticalAlign=middle;resizable=0;points=[];autosize=1;strokeColor=none;fillColor=none;" parent="1" vertex="1">
          <mxGeometry x="15" y="-550" width="160" height="30" as="geometry" />
        </mxCell>
        <mxCell id="64B-MYcMhY1m8WwcN2P--95" value="admin" style="shape=umlLifeline;perimeter=lifelinePerimeter;whiteSpace=wrap;html=1;container=1;dropTarget=0;collapsible=0;recursiveResize=0;outlineConnect=0;portConstraint=eastwest;newEdgeStyle={&quot;curved&quot;:0,&quot;rounded&quot;:0};participant=umlActor;" parent="1" vertex="1">
          <mxGeometry x="60" y="-520" width="20" height="300" as="geometry" />
        </mxCell>
        <mxCell id="64B-MYcMhY1m8WwcN2P--98" value="" style="html=1;points=[[0,0,0,0,5],[0,1,0,0,-5],[1,0,0,0,5],[1,1,0,0,-5]];perimeter=orthogonalPerimeter;outlineConnect=0;targetShapes=umlLifeline;portConstraint=eastwest;newEdgeStyle={&quot;curved&quot;:0,&quot;rounded&quot;:0};" parent="64B-MYcMhY1m8WwcN2P--95" vertex="1">
          <mxGeometry x="5" y="80" width="10" height="80" as="geometry" />
        </mxCell>
        <mxCell id="64B-MYcMhY1m8WwcN2P--96" value="system" style="shape=umlLifeline;perimeter=lifelinePerimeter;whiteSpace=wrap;html=1;container=1;dropTarget=0;collapsible=0;recursiveResize=0;outlineConnect=0;portConstraint=eastwest;newEdgeStyle={&quot;curved&quot;:0,&quot;rounded&quot;:0};" parent="1" vertex="1">
          <mxGeometry x="200" y="-520" width="100" height="300" as="geometry" />
        </mxCell>
        <mxCell id="64B-MYcMhY1m8WwcN2P--110" value="" style="html=1;points=[[0,0,0,0,5],[0,1,0,0,-5],[1,0,0,0,5],[1,1,0,0,-5]];perimeter=orthogonalPerimeter;outlineConnect=0;targetShapes=umlLifeline;portConstraint=eastwest;newEdgeStyle={&quot;curved&quot;:0,&quot;rounded&quot;:0};" parent="64B-MYcMhY1m8WwcN2P--96" vertex="1">
          <mxGeometry x="45" y="80" width="10" height="80" as="geometry" />
        </mxCell>
        <mxCell id="64B-MYcMhY1m8WwcN2P--119" value="" style="html=1;points=[[0,0,0,0,5],[0,1,0,0,-5],[1,0,0,0,5],[1,1,0,0,-5]];perimeter=orthogonalPerimeter;outlineConnect=0;targetShapes=umlLifeline;portConstraint=eastwest;newEdgeStyle={&quot;curved&quot;:0,&quot;rounded&quot;:0};" parent="64B-MYcMhY1m8WwcN2P--96" vertex="1">
          <mxGeometry x="45" y="170" width="10" height="80" as="geometry" />
        </mxCell>
        <mxCell id="64B-MYcMhY1m8WwcN2P--97" value="database" style="shape=umlLifeline;perimeter=lifelinePerimeter;whiteSpace=wrap;html=1;container=1;dropTarget=0;collapsible=0;recursiveResize=0;outlineConnect=0;portConstraint=eastwest;newEdgeStyle={&quot;curved&quot;:0,&quot;rounded&quot;:0};" parent="1" vertex="1">
          <mxGeometry x="370" y="-520" width="100" height="300" as="geometry" />
        </mxCell>
        <mxCell id="64B-MYcMhY1m8WwcN2P--100" value="" style="html=1;points=[[0,0,0,0,5],[0,1,0,0,-5],[1,0,0,0,5],[1,1,0,0,-5]];perimeter=orthogonalPerimeter;outlineConnect=0;targetShapes=umlLifeline;portConstraint=eastwest;newEdgeStyle={&quot;curved&quot;:0,&quot;rounded&quot;:0};" parent="64B-MYcMhY1m8WwcN2P--97" vertex="1">
          <mxGeometry x="45" y="80" width="10" height="80" as="geometry" />
        </mxCell>
        <mxCell id="64B-MYcMhY1m8WwcN2P--107" value="select user and initiate ban or&lt;div&gt;probation&lt;/div&gt;" style="html=1;verticalAlign=bottom;endArrow=block;curved=0;rounded=0;" parent="1" target="64B-MYcMhY1m8WwcN2P--96" edge="1">
          <mxGeometry width="80" relative="1" as="geometry">
            <mxPoint x="80" y="-420" as="sourcePoint" />
            <mxPoint x="180" y="-420" as="targetPoint" />
            <Array as="points" />
          </mxGeometry>
        </mxCell>
        <mxCell id="64B-MYcMhY1m8WwcN2P--108" value="updates user status" style="html=1;verticalAlign=bottom;endArrow=block;curved=0;rounded=0;" parent="1" edge="1">
          <mxGeometry width="80" relative="1" as="geometry">
            <mxPoint x="260" y="-420" as="sourcePoint" />
            <mxPoint x="415" y="-420" as="targetPoint" />
            <Array as="points" />
          </mxGeometry>
        </mxCell>
        <mxCell id="64B-MYcMhY1m8WwcN2P--109" value="&amp;nbsp; &amp;nbsp; &amp;nbsp; confirms the user status" style="html=1;verticalAlign=bottom;endArrow=open;dashed=1;endSize=8;curved=0;rounded=0;" parent="1" source="64B-MYcMhY1m8WwcN2P--97" edge="1">
          <mxGeometry relative="1" as="geometry">
            <mxPoint x="350" y="-400" as="sourcePoint" />
            <mxPoint x="260" y="-400" as="targetPoint" />
          </mxGeometry>
        </mxCell>
        <mxCell id="64B-MYcMhY1m8WwcN2P--116" value="user" style="shape=umlLifeline;perimeter=lifelinePerimeter;whiteSpace=wrap;html=1;container=1;dropTarget=0;collapsible=0;recursiveResize=0;outlineConnect=0;portConstraint=eastwest;newEdgeStyle={&quot;curved&quot;:0,&quot;rounded&quot;:0};participant=umlActor;" parent="1" vertex="1">
          <mxGeometry x="550" y="-530" width="20" height="300" as="geometry" />
        </mxCell>
        <mxCell id="64B-MYcMhY1m8WwcN2P--117" value="" style="html=1;points=[[0,0,0,0,5],[0,1,0,0,-5],[1,0,0,0,5],[1,1,0,0,-5]];perimeter=orthogonalPerimeter;outlineConnect=0;targetShapes=umlLifeline;portConstraint=eastwest;newEdgeStyle={&quot;curved&quot;:0,&quot;rounded&quot;:0};" parent="64B-MYcMhY1m8WwcN2P--116" vertex="1">
          <mxGeometry x="5" y="170" width="10" height="80" as="geometry" />
        </mxCell>
        <mxCell id="64B-MYcMhY1m8WwcN2P--121" value="" style="endArrow=open;endFill=1;endSize=12;html=1;rounded=0;" parent="1" source="64B-MYcMhY1m8WwcN2P--96" edge="1">
          <mxGeometry width="160" relative="1" as="geometry">
            <mxPoint x="330" y="-310" as="sourcePoint" />
            <mxPoint x="550" y="-310" as="targetPoint" />
          </mxGeometry>
        </mxCell>
        <mxCell id="64B-MYcMhY1m8WwcN2P--122" value="sends notification about account restriction" style="edgeLabel;html=1;align=center;verticalAlign=middle;resizable=0;points=[];" parent="64B-MYcMhY1m8WwcN2P--121" vertex="1" connectable="0">
          <mxGeometry x="0.0483" y="1" relative="1" as="geometry">
            <mxPoint as="offset" />
          </mxGeometry>
        </mxCell>
        <mxCell id="64B-MYcMhY1m8WwcN2P--123" value="message other users" style="text;html=1;align=center;verticalAlign=middle;resizable=0;points=[];autosize=1;strokeColor=none;fillColor=none;" parent="1" vertex="1">
          <mxGeometry x="-10" y="-202" width="140" height="30" as="geometry" />
        </mxCell>
        <mxCell id="64B-MYcMhY1m8WwcN2P--124" value="database" style="shape=umlLifeline;perimeter=lifelinePerimeter;whiteSpace=wrap;html=1;container=1;dropTarget=0;collapsible=0;recursiveResize=0;outlineConnect=0;portConstraint=eastwest;newEdgeStyle={&quot;curved&quot;:0,&quot;rounded&quot;:0};" parent="1" vertex="1">
          <mxGeometry x="375" y="-172" width="100" height="792" as="geometry" />
        </mxCell>
        <mxCell id="64B-MYcMhY1m8WwcN2P--126" value="system" style="shape=umlLifeline;perimeter=lifelinePerimeter;whiteSpace=wrap;html=1;container=1;dropTarget=0;collapsible=0;recursiveResize=0;outlineConnect=0;portConstraint=eastwest;newEdgeStyle={&quot;curved&quot;:0,&quot;rounded&quot;:0};" parent="1" vertex="1">
          <mxGeometry x="190" y="-172" width="100" height="832" as="geometry" />
        </mxCell>
        <mxCell id="64B-MYcMhY1m8WwcN2P--144" value="" style="html=1;points=[[0,0,0,0,5],[0,1,0,0,-5],[1,0,0,0,5],[1,1,0,0,-5]];perimeter=orthogonalPerimeter;outlineConnect=0;targetShapes=umlLifeline;portConstraint=eastwest;newEdgeStyle={&quot;curved&quot;:0,&quot;rounded&quot;:0};" parent="64B-MYcMhY1m8WwcN2P--126" vertex="1">
          <mxGeometry x="45" y="62" width="10" height="58" as="geometry" />
        </mxCell>
        <mxCell id="64B-MYcMhY1m8WwcN2P--128" value="&amp;nbsp;user&amp;nbsp; &amp;nbsp; &amp;nbsp;A" style="shape=umlLifeline;perimeter=lifelinePerimeter;whiteSpace=wrap;html=1;container=1;dropTarget=0;collapsible=0;recursiveResize=0;outlineConnect=0;portConstraint=eastwest;newEdgeStyle={&quot;curved&quot;:0,&quot;rounded&quot;:0};participant=umlActor;" parent="1" vertex="1">
          <mxGeometry x="40" y="-150" width="20" height="820" as="geometry" />
        </mxCell>
        <mxCell id="64B-MYcMhY1m8WwcN2P--130" value="" style="html=1;points=[[0,0,0,0,5],[0,1,0,0,-5],[1,0,0,0,5],[1,1,0,0,-5]];perimeter=orthogonalPerimeter;outlineConnect=0;targetShapes=umlLifeline;portConstraint=eastwest;newEdgeStyle={&quot;curved&quot;:0,&quot;rounded&quot;:0};" parent="64B-MYcMhY1m8WwcN2P--128" vertex="1">
          <mxGeometry x="5" y="62" width="10" height="48" as="geometry" />
        </mxCell>
        <mxCell id="64B-MYcMhY1m8WwcN2P--129" value="user B" style="shape=umlLifeline;perimeter=lifelinePerimeter;whiteSpace=wrap;html=1;container=1;dropTarget=0;collapsible=0;recursiveResize=0;outlineConnect=0;portConstraint=eastwest;newEdgeStyle={&quot;curved&quot;:0,&quot;rounded&quot;:0};participant=umlActor;" parent="1" vertex="1">
          <mxGeometry x="695" y="-180" width="20" height="790" as="geometry" />
        </mxCell>
        <mxCell id="64B-MYcMhY1m8WwcN2P--132" value="" style="html=1;points=[[0,0,0,0,5],[0,1,0,0,-5],[1,0,0,0,5],[1,1,0,0,-5]];perimeter=orthogonalPerimeter;outlineConnect=0;targetShapes=umlLifeline;portConstraint=eastwest;newEdgeStyle={&quot;curved&quot;:0,&quot;rounded&quot;:0};" parent="64B-MYcMhY1m8WwcN2P--129" vertex="1">
          <mxGeometry x="5" y="60" width="10" height="60" as="geometry" />
        </mxCell>
        <mxCell id="64B-MYcMhY1m8WwcN2P--174" value="" style="html=1;points=[[0,0,0,0,5],[0,1,0,0,-5],[1,0,0,0,5],[1,1,0,0,-5]];perimeter=orthogonalPerimeter;outlineConnect=0;targetShapes=umlLifeline;portConstraint=eastwest;newEdgeStyle={&quot;curved&quot;:0,&quot;rounded&quot;:0};" parent="64B-MYcMhY1m8WwcN2P--129" vertex="1">
          <mxGeometry x="5" y="249" width="10" height="80" as="geometry" />
        </mxCell>
        <mxCell id="64B-MYcMhY1m8WwcN2P--198" value="" style="html=1;points=[[0,0,0,0,5],[0,1,0,0,-5],[1,0,0,0,5],[1,1,0,0,-5]];perimeter=orthogonalPerimeter;outlineConnect=0;targetShapes=umlLifeline;portConstraint=eastwest;newEdgeStyle={&quot;curved&quot;:0,&quot;rounded&quot;:0};" parent="64B-MYcMhY1m8WwcN2P--129" vertex="1">
          <mxGeometry x="5" y="480" width="10" height="80" as="geometry" />
        </mxCell>
        <mxCell id="64B-MYcMhY1m8WwcN2P--143" value="initiates a message&amp;nbsp; &amp;nbsp; &amp;nbsp; &amp;nbsp; &amp;nbsp; &amp;nbsp; &amp;nbsp; &amp;nbsp; &amp;nbsp; &amp;nbsp; &amp;nbsp; &amp;nbsp; &amp;nbsp; &amp;nbsp;" style="html=1;verticalAlign=bottom;endArrow=block;curved=0;rounded=0;" parent="1" source="64B-MYcMhY1m8WwcN2P--130" target="64B-MYcMhY1m8WwcN2P--132" edge="1">
          <mxGeometry width="80" relative="1" as="geometry">
            <mxPoint x="100" y="-80" as="sourcePoint" />
            <mxPoint x="660" y="-70" as="targetPoint" />
            <Array as="points">
              <mxPoint x="410" y="-100" />
            </Array>
          </mxGeometry>
        </mxCell>
        <mxCell id="64B-MYcMhY1m8WwcN2P--146" value="alt" style="shape=umlFrame;whiteSpace=wrap;html=1;pointerEvents=0;" parent="1" vertex="1">
          <mxGeometry x="150" y="-42" width="300" height="200" as="geometry" />
        </mxCell>
        <mxCell id="64B-MYcMhY1m8WwcN2P--149" value="checks user a and b are friends" style="html=1;verticalAlign=bottom;endArrow=block;curved=0;rounded=0;" parent="1" edge="1">
          <mxGeometry width="80" relative="1" as="geometry">
            <mxPoint x="250" y="-80" as="sourcePoint" />
            <mxPoint x="400" y="-80" as="targetPoint" />
            <Array as="points">
              <mxPoint x="350" y="-80" />
            </Array>
          </mxGeometry>
        </mxCell>
        <mxCell id="64B-MYcMhY1m8WwcN2P--150" value="&amp;nbsp; &amp;nbsp; &amp;nbsp; [if they are]" style="text;html=1;align=center;verticalAlign=middle;resizable=0;points=[];autosize=1;strokeColor=none;fillColor=none;" parent="1" vertex="1">
          <mxGeometry x="130" y="-10" width="100" height="30" as="geometry" />
        </mxCell>
        <mxCell id="64B-MYcMhY1m8WwcN2P--151" value="" style="endArrow=open;endFill=1;endSize=12;html=1;rounded=0;" parent="1" edge="1">
          <mxGeometry width="160" relative="1" as="geometry">
            <mxPoint x="250" y="24.5" as="sourcePoint" />
            <mxPoint x="695" y="24.5" as="targetPoint" />
          </mxGeometry>
        </mxCell>
        <mxCell id="64B-MYcMhY1m8WwcN2P--152" value="sends message directly&amp;nbsp; &amp;nbsp;to b&amp;nbsp; &amp;nbsp;&amp;nbsp;" style="text;html=1;align=center;verticalAlign=middle;resizable=0;points=[];autosize=1;strokeColor=none;fillColor=none;" parent="1" vertex="1">
          <mxGeometry x="250" width="190" height="30" as="geometry" />
        </mxCell>
        <mxCell id="64B-MYcMhY1m8WwcN2P--154" value="" style="html=1;points=[[0,0,0,0,5],[0,1,0,0,-5],[1,0,0,0,5],[1,1,0,0,-5]];perimeter=orthogonalPerimeter;outlineConnect=0;targetShapes=umlLifeline;portConstraint=eastwest;newEdgeStyle={&quot;curved&quot;:0,&quot;rounded&quot;:0};" parent="1" vertex="1">
          <mxGeometry x="420" y="-110" width="10" height="60" as="geometry" />
        </mxCell>
        <mxCell id="64B-MYcMhY1m8WwcN2P--163" value="" style="html=1;points=[[0,0,0,0,5],[0,1,0,0,-5],[1,0,0,0,5],[1,1,0,0,-5]];perimeter=orthogonalPerimeter;outlineConnect=0;targetShapes=umlLifeline;portConstraint=eastwest;newEdgeStyle={&quot;curved&quot;:0,&quot;rounded&quot;:0};" parent="1" vertex="1">
          <mxGeometry x="235" y="-10" width="10" height="60" as="geometry" />
        </mxCell>
        <mxCell id="64B-MYcMhY1m8WwcN2P--164" value="" style="html=1;points=[[0,0,0,0,5],[0,1,0,0,-5],[1,0,0,0,5],[1,1,0,0,-5]];perimeter=orthogonalPerimeter;outlineConnect=0;targetShapes=umlLifeline;portConstraint=eastwest;newEdgeStyle={&quot;curved&quot;:0,&quot;rounded&quot;:0};" parent="1" vertex="1">
          <mxGeometry x="420" y="-10" width="10" height="60" as="geometry" />
        </mxCell>
        <mxCell id="64B-MYcMhY1m8WwcN2P--172" value="&amp;nbsp; &amp;nbsp; &amp;nbsp; &amp;nbsp; &amp;nbsp; &amp;nbsp; &amp;nbsp; &amp;nbsp; &amp;nbsp; [if they are not]" style="text;html=1;align=center;verticalAlign=middle;resizable=0;points=[];autosize=1;strokeColor=none;fillColor=none;" parent="1" vertex="1">
          <mxGeometry x="80" y="78" width="160" height="30" as="geometry" />
        </mxCell>
        <mxCell id="64B-MYcMhY1m8WwcN2P--173" value="" style="html=1;points=[[0,0,0,0,5],[0,1,0,0,-5],[1,0,0,0,5],[1,1,0,0,-5]];perimeter=orthogonalPerimeter;outlineConnect=0;targetShapes=umlLifeline;portConstraint=eastwest;newEdgeStyle={&quot;curved&quot;:0,&quot;rounded&quot;:0};" parent="1" vertex="1">
          <mxGeometry x="235" y="78" width="10" height="62" as="geometry" />
        </mxCell>
        <mxCell id="64B-MYcMhY1m8WwcN2P--180" value="sends request to message" style="text;html=1;align=center;verticalAlign=middle;resizable=0;points=[];autosize=1;strokeColor=none;fillColor=none;" parent="1" vertex="1">
          <mxGeometry x="280" y="88" width="160" height="30" as="geometry" />
        </mxCell>
        <mxCell id="64B-MYcMhY1m8WwcN2P--182" value="" style="html=1;verticalAlign=bottom;endArrow=block;curved=0;rounded=0;" parent="1" edge="1">
          <mxGeometry width="80" relative="1" as="geometry">
            <mxPoint x="245" y="108" as="sourcePoint" />
            <mxPoint x="690" y="108" as="targetPoint" />
          </mxGeometry>
        </mxCell>
        <mxCell id="64B-MYcMhY1m8WwcN2P--183" value="" style="html=1;points=[[0,0,0,0,5],[0,1,0,0,-5],[1,0,0,0,5],[1,1,0,0,-5]];perimeter=orthogonalPerimeter;outlineConnect=0;targetShapes=umlLifeline;portConstraint=eastwest;newEdgeStyle={&quot;curved&quot;:0,&quot;rounded&quot;:0};" parent="1" vertex="1">
          <mxGeometry x="235" y="190" width="10" height="80" as="geometry" />
        </mxCell>
        <mxCell id="64B-MYcMhY1m8WwcN2P--186" value="" style="html=1;points=[[0,0,0,0,5],[0,1,0,0,-5],[1,0,0,0,5],[1,1,0,0,-5]];perimeter=orthogonalPerimeter;outlineConnect=0;targetShapes=umlLifeline;portConstraint=eastwest;newEdgeStyle={&quot;curved&quot;:0,&quot;rounded&quot;:0};" parent="1" vertex="1">
          <mxGeometry x="700" y="180" width="10" height="90" as="geometry" />
        </mxCell>
        <mxCell id="64B-MYcMhY1m8WwcN2P--188" value="alt" style="shape=umlFrame;whiteSpace=wrap;html=1;pointerEvents=0;" parent="1" vertex="1">
          <mxGeometry x="150" y="170" width="610" height="220" as="geometry" />
        </mxCell>
        <mxCell id="64B-MYcMhY1m8WwcN2P--189" value="&amp;nbsp; &amp;nbsp; &amp;nbsp; &amp;nbsp; &amp;nbsp; &amp;nbsp; &amp;nbsp; &amp;nbsp; &amp;nbsp; [if user accept]" style="text;html=1;align=center;verticalAlign=middle;resizable=0;points=[];autosize=1;strokeColor=none;fillColor=none;" parent="1" vertex="1">
          <mxGeometry x="80" y="198" width="160" height="30" as="geometry" />
        </mxCell>
        <mxCell id="64B-MYcMhY1m8WwcN2P--190" value="" style="html=1;points=[[0,0,0,0,5],[0,1,0,0,-5],[1,0,0,0,5],[1,1,0,0,-5]];perimeter=orthogonalPerimeter;outlineConnect=0;targetShapes=umlLifeline;portConstraint=eastwest;newEdgeStyle={&quot;curved&quot;:0,&quot;rounded&quot;:0};" parent="1" vertex="1">
          <mxGeometry x="45" y="180" width="10" height="80" as="geometry" />
        </mxCell>
        <mxCell id="64B-MYcMhY1m8WwcN2P--193" value="" style="endArrow=open;endFill=1;endSize=12;html=1;rounded=0;" parent="1" edge="1">
          <mxGeometry width="160" relative="1" as="geometry">
            <mxPoint x="250" y="219" as="sourcePoint" />
            <mxPoint x="700" y="219" as="targetPoint" />
          </mxGeometry>
        </mxCell>
        <mxCell id="64B-MYcMhY1m8WwcN2P--194" value="user a can send message" style="text;html=1;align=center;verticalAlign=middle;resizable=0;points=[];autosize=1;strokeColor=none;fillColor=none;" parent="1" vertex="1">
          <mxGeometry x="270" y="198" width="160" height="30" as="geometry" />
        </mxCell>
        <mxCell id="64B-MYcMhY1m8WwcN2P--195" value="&amp;nbsp; &amp;nbsp; [else]" style="text;html=1;align=center;verticalAlign=middle;resizable=0;points=[];autosize=1;strokeColor=none;fillColor=none;" parent="1" vertex="1">
          <mxGeometry x="125" y="268" width="70" height="30" as="geometry" />
        </mxCell>
        <mxCell id="64B-MYcMhY1m8WwcN2P--197" value="" style="html=1;points=[[0,0,0,0,5],[0,1,0,0,-5],[1,0,0,0,5],[1,1,0,0,-5]];perimeter=orthogonalPerimeter;outlineConnect=0;targetShapes=umlLifeline;portConstraint=eastwest;newEdgeStyle={&quot;curved&quot;:0,&quot;rounded&quot;:0};" parent="1" vertex="1">
          <mxGeometry x="235" y="298" width="10" height="80" as="geometry" />
        </mxCell>
        <mxCell id="64B-MYcMhY1m8WwcN2P--199" value="" style="endArrow=open;endFill=1;endSize=12;html=1;rounded=0;" parent="1" edge="1">
          <mxGeometry width="160" relative="1" as="geometry">
            <mxPoint x="250" y="337.33" as="sourcePoint" />
            <mxPoint x="700" y="337.33" as="targetPoint" />
          </mxGeometry>
        </mxCell>
        <mxCell id="64B-MYcMhY1m8WwcN2P--200" value="user is not able to send" style="edgeLabel;html=1;align=center;verticalAlign=middle;resizable=0;points=[];" parent="64B-MYcMhY1m8WwcN2P--199" vertex="1" connectable="0">
          <mxGeometry x="-0.56" y="3" relative="1" as="geometry">
            <mxPoint as="offset" />
          </mxGeometry>
        </mxCell>
        <mxCell id="64B-MYcMhY1m8WwcN2P--205" value="user" style="shape=umlLifeline;perimeter=lifelinePerimeter;whiteSpace=wrap;html=1;container=1;dropTarget=0;collapsible=0;recursiveResize=0;outlineConnect=0;portConstraint=eastwest;newEdgeStyle={&quot;curved&quot;:0,&quot;rounded&quot;:0};participant=umlActor;" parent="1" vertex="1">
          <mxGeometry x="15" y="-1740" width="20" height="300" as="geometry" />
        </mxCell>
        <mxCell id="64B-MYcMhY1m8WwcN2P--208" value="" style="html=1;points=[[0,0,0,0,5],[0,1,0,0,-5],[1,0,0,0,5],[1,1,0,0,-5]];perimeter=orthogonalPerimeter;outlineConnect=0;targetShapes=umlLifeline;portConstraint=eastwest;newEdgeStyle={&quot;curved&quot;:0,&quot;rounded&quot;:0};" parent="64B-MYcMhY1m8WwcN2P--205" vertex="1">
          <mxGeometry x="5" y="60" width="10" height="80" as="geometry" />
        </mxCell>
        <mxCell id="64B-MYcMhY1m8WwcN2P--206" value="system" style="shape=umlLifeline;perimeter=lifelinePerimeter;whiteSpace=wrap;html=1;container=1;dropTarget=0;collapsible=0;recursiveResize=0;outlineConnect=0;portConstraint=eastwest;newEdgeStyle={&quot;curved&quot;:0,&quot;rounded&quot;:0};" parent="1" vertex="1">
          <mxGeometry x="260" y="-1750" width="100" height="300" as="geometry" />
        </mxCell>
        <mxCell id="64B-MYcMhY1m8WwcN2P--209" value="" style="html=1;points=[[0,0,0,0,5],[0,1,0,0,-5],[1,0,0,0,5],[1,1,0,0,-5]];perimeter=orthogonalPerimeter;outlineConnect=0;targetShapes=umlLifeline;portConstraint=eastwest;newEdgeStyle={&quot;curved&quot;:0,&quot;rounded&quot;:0};" parent="64B-MYcMhY1m8WwcN2P--206" vertex="1">
          <mxGeometry x="45" y="70" width="10" height="80" as="geometry" />
        </mxCell>
        <mxCell id="64B-MYcMhY1m8WwcN2P--207" value="database" style="shape=umlLifeline;perimeter=lifelinePerimeter;whiteSpace=wrap;html=1;container=1;dropTarget=0;collapsible=0;recursiveResize=0;outlineConnect=0;portConstraint=eastwest;newEdgeStyle={&quot;curved&quot;:0,&quot;rounded&quot;:0};" parent="1" vertex="1">
          <mxGeometry x="510" y="-1760" width="100" height="300" as="geometry" />
        </mxCell>
        <mxCell id="64B-MYcMhY1m8WwcN2P--210" value="" style="html=1;points=[[0,0,0,0,5],[0,1,0,0,-5],[1,0,0,0,5],[1,1,0,0,-5]];perimeter=orthogonalPerimeter;outlineConnect=0;targetShapes=umlLifeline;portConstraint=eastwest;newEdgeStyle={&quot;curved&quot;:0,&quot;rounded&quot;:0};" parent="64B-MYcMhY1m8WwcN2P--207" vertex="1">
          <mxGeometry x="45" y="70" width="10" height="80" as="geometry" />
        </mxCell>
        <mxCell id="64B-MYcMhY1m8WwcN2P--213" value="initiates signup or login" style="html=1;verticalAlign=bottom;endArrow=block;curved=0;rounded=0;" parent="1" target="64B-MYcMhY1m8WwcN2P--206" edge="1">
          <mxGeometry width="80" relative="1" as="geometry">
            <mxPoint x="40" y="-1660" as="sourcePoint" />
            <mxPoint x="180" y="-1640" as="targetPoint" />
          </mxGeometry>
        </mxCell>
        <mxCell id="64B-MYcMhY1m8WwcN2P--215" value="initiates signup or login" style="html=1;verticalAlign=bottom;endArrow=block;curved=0;rounded=0;" parent="1" edge="1">
          <mxGeometry width="80" relative="1" as="geometry">
            <mxPoint x="320" y="-1660" as="sourcePoint" />
            <mxPoint x="560" y="-1660" as="targetPoint" />
          </mxGeometry>
        </mxCell>
        <mxCell id="64B-MYcMhY1m8WwcN2P--220" value="confirms success or failure" style="html=1;verticalAlign=bottom;endArrow=open;dashed=1;endSize=8;curved=0;rounded=0;" parent="1" source="64B-MYcMhY1m8WwcN2P--207" edge="1">
          <mxGeometry relative="1" as="geometry">
            <mxPoint x="535" y="-1630" as="sourcePoint" />
            <mxPoint x="315" y="-1630" as="targetPoint" />
            <Array as="points">
              <mxPoint x="435" y="-1630" />
              <mxPoint x="335" y="-1630" />
              <mxPoint x="325" y="-1630" />
              <mxPoint x="345" y="-1630" />
            </Array>
          </mxGeometry>
        </mxCell>
        <mxCell id="64B-MYcMhY1m8WwcN2P--221" value="provide feedback" style="html=1;verticalAlign=bottom;endArrow=open;dashed=1;endSize=8;curved=0;rounded=0;" parent="1" edge="1">
          <mxGeometry relative="1" as="geometry">
            <mxPoint x="290" y="-1630" as="sourcePoint" />
            <mxPoint x="45" y="-1630" as="targetPoint" />
            <Array as="points">
              <mxPoint x="165" y="-1630" />
              <mxPoint x="65" y="-1630" />
              <mxPoint x="55" y="-1630" />
              <mxPoint x="75" y="-1630" />
            </Array>
          </mxGeometry>
        </mxCell>
      </root>
    </mxGraphModel>
  </diagram>
  <diagram id="fPO_j2nJ0IvK0SGNM7NK" name="Page-2">
    <mxGraphModel dx="1434" dy="3054" grid="1" gridSize="10" guides="1" tooltips="1" connect="1" arrows="1" fold="1" page="1" pageScale="1" pageWidth="850" pageHeight="1100" math="0" shadow="0">
      <root>
        <mxCell id="0" />
        <mxCell id="1" parent="0" />
        <mxCell id="HUW6AxFFNUXjsIbpzm4O-1" value="user sign up or login" style="text;html=1;align=center;verticalAlign=middle;resizable=0;points=[];autosize=1;strokeColor=none;fillColor=none;" vertex="1" parent="1">
          <mxGeometry x="100" y="-1790" width="130" height="30" as="geometry" />
        </mxCell>
        <mxCell id="HUW6AxFFNUXjsIbpzm4O-2" value="user" style="shape=umlLifeline;perimeter=lifelinePerimeter;whiteSpace=wrap;html=1;container=1;dropTarget=0;collapsible=0;recursiveResize=0;outlineConnect=0;portConstraint=eastwest;newEdgeStyle={&quot;curved&quot;:0,&quot;rounded&quot;:0};participant=umlActor;" vertex="1" parent="1">
          <mxGeometry x="120" y="-1750" width="20" height="300" as="geometry" />
        </mxCell>
        <mxCell id="HUW6AxFFNUXjsIbpzm4O-3" value="" style="html=1;points=[[0,0,0,0,5],[0,1,0,0,-5],[1,0,0,0,5],[1,1,0,0,-5]];perimeter=orthogonalPerimeter;outlineConnect=0;targetShapes=umlLifeline;portConstraint=eastwest;newEdgeStyle={&quot;curved&quot;:0,&quot;rounded&quot;:0};" vertex="1" parent="HUW6AxFFNUXjsIbpzm4O-2">
          <mxGeometry x="5" y="60" width="10" height="80" as="geometry" />
        </mxCell>
        <mxCell id="HUW6AxFFNUXjsIbpzm4O-4" value="system" style="shape=umlLifeline;perimeter=lifelinePerimeter;whiteSpace=wrap;html=1;container=1;dropTarget=0;collapsible=0;recursiveResize=0;outlineConnect=0;portConstraint=eastwest;newEdgeStyle={&quot;curved&quot;:0,&quot;rounded&quot;:0};" vertex="1" parent="1">
          <mxGeometry x="365" y="-1760" width="100" height="300" as="geometry" />
        </mxCell>
        <mxCell id="HUW6AxFFNUXjsIbpzm4O-5" value="" style="html=1;points=[[0,0,0,0,5],[0,1,0,0,-5],[1,0,0,0,5],[1,1,0,0,-5]];perimeter=orthogonalPerimeter;outlineConnect=0;targetShapes=umlLifeline;portConstraint=eastwest;newEdgeStyle={&quot;curved&quot;:0,&quot;rounded&quot;:0};" vertex="1" parent="HUW6AxFFNUXjsIbpzm4O-4">
          <mxGeometry x="45" y="70" width="10" height="80" as="geometry" />
        </mxCell>
        <mxCell id="HUW6AxFFNUXjsIbpzm4O-6" value="database" style="shape=umlLifeline;perimeter=lifelinePerimeter;whiteSpace=wrap;html=1;container=1;dropTarget=0;collapsible=0;recursiveResize=0;outlineConnect=0;portConstraint=eastwest;newEdgeStyle={&quot;curved&quot;:0,&quot;rounded&quot;:0};" vertex="1" parent="1">
          <mxGeometry x="615" y="-1770" width="100" height="300" as="geometry" />
        </mxCell>
        <mxCell id="HUW6AxFFNUXjsIbpzm4O-7" value="" style="html=1;points=[[0,0,0,0,5],[0,1,0,0,-5],[1,0,0,0,5],[1,1,0,0,-5]];perimeter=orthogonalPerimeter;outlineConnect=0;targetShapes=umlLifeline;portConstraint=eastwest;newEdgeStyle={&quot;curved&quot;:0,&quot;rounded&quot;:0};" vertex="1" parent="HUW6AxFFNUXjsIbpzm4O-6">
          <mxGeometry x="45" y="70" width="10" height="80" as="geometry" />
        </mxCell>
        <mxCell id="HUW6AxFFNUXjsIbpzm4O-8" value="initiates signup or login" style="html=1;verticalAlign=bottom;endArrow=block;curved=0;rounded=0;" edge="1" parent="1" target="HUW6AxFFNUXjsIbpzm4O-4">
          <mxGeometry width="80" relative="1" as="geometry">
            <mxPoint x="145" y="-1670" as="sourcePoint" />
            <mxPoint x="285" y="-1650" as="targetPoint" />
          </mxGeometry>
        </mxCell>
        <mxCell id="HUW6AxFFNUXjsIbpzm4O-9" value="initiates signup or login" style="html=1;verticalAlign=bottom;endArrow=block;curved=0;rounded=0;" edge="1" parent="1">
          <mxGeometry width="80" relative="1" as="geometry">
            <mxPoint x="425" y="-1670" as="sourcePoint" />
            <mxPoint x="665" y="-1670" as="targetPoint" />
          </mxGeometry>
        </mxCell>
        <mxCell id="HUW6AxFFNUXjsIbpzm4O-10" value="confirms success or failure" style="html=1;verticalAlign=bottom;endArrow=open;dashed=1;endSize=8;curved=0;rounded=0;" edge="1" parent="1" source="HUW6AxFFNUXjsIbpzm4O-6">
          <mxGeometry relative="1" as="geometry">
            <mxPoint x="640" y="-1640" as="sourcePoint" />
            <mxPoint x="420" y="-1640" as="targetPoint" />
            <Array as="points">
              <mxPoint x="540" y="-1640" />
              <mxPoint x="440" y="-1640" />
              <mxPoint x="430" y="-1640" />
              <mxPoint x="450" y="-1640" />
            </Array>
          </mxGeometry>
        </mxCell>
        <mxCell id="HUW6AxFFNUXjsIbpzm4O-11" value="provide feedback" style="html=1;verticalAlign=bottom;endArrow=open;dashed=1;endSize=8;curved=0;rounded=0;" edge="1" parent="1">
          <mxGeometry relative="1" as="geometry">
            <mxPoint x="395" y="-1640" as="sourcePoint" />
            <mxPoint x="150" y="-1640" as="targetPoint" />
            <Array as="points">
              <mxPoint x="270" y="-1640" />
              <mxPoint x="170" y="-1640" />
              <mxPoint x="160" y="-1640" />
              <mxPoint x="180" y="-1640" />
            </Array>
          </mxGeometry>
        </mxCell>
      </root>
    </mxGraphModel>
  </diagram>
  <diagram id="_c-i_rnG7M48pf4yEp8v" name="Page-3">
    <mxGraphModel dx="1434" dy="1954" grid="1" gridSize="10" guides="1" tooltips="1" connect="1" arrows="1" fold="1" page="1" pageScale="1" pageWidth="850" pageHeight="1100" math="0" shadow="0">
      <root>
        <mxCell id="0" />
        <mxCell id="1" parent="0" />
        <mxCell id="Kj-8kQu7710nb2L87hdL-1" value="user" style="shape=umlLifeline;perimeter=lifelinePerimeter;whiteSpace=wrap;html=1;container=1;dropTarget=0;collapsible=0;recursiveResize=0;outlineConnect=0;portConstraint=eastwest;newEdgeStyle={&quot;curved&quot;:0,&quot;rounded&quot;:0};participant=umlActor;" vertex="1" parent="1">
          <mxGeometry x="120" y="-790" width="20" height="300" as="geometry" />
        </mxCell>
        <mxCell id="Kj-8kQu7710nb2L87hdL-2" value="" style="html=1;points=[[0,0,0,0,5],[0,1,0,0,-5],[1,0,0,0,5],[1,1,0,0,-5]];perimeter=orthogonalPerimeter;outlineConnect=0;targetShapes=umlLifeline;portConstraint=eastwest;newEdgeStyle={&quot;curved&quot;:0,&quot;rounded&quot;:0};" vertex="1" parent="Kj-8kQu7710nb2L87hdL-1">
          <mxGeometry x="5" y="80" width="10" height="80" as="geometry" />
        </mxCell>
        <mxCell id="Kj-8kQu7710nb2L87hdL-3" value="System" style="shape=umlLifeline;perimeter=lifelinePerimeter;whiteSpace=wrap;html=1;container=1;dropTarget=0;collapsible=0;recursiveResize=0;outlineConnect=0;portConstraint=eastwest;newEdgeStyle={&quot;curved&quot;:0,&quot;rounded&quot;:0};" vertex="1" parent="1">
          <mxGeometry x="305" y="-790" width="100" height="300" as="geometry" />
        </mxCell>
        <mxCell id="Kj-8kQu7710nb2L87hdL-4" value="" style="html=1;points=[[0,0,0,0,5],[0,1,0,0,-5],[1,0,0,0,5],[1,1,0,0,-5]];perimeter=orthogonalPerimeter;outlineConnect=0;targetShapes=umlLifeline;portConstraint=eastwest;newEdgeStyle={&quot;curved&quot;:0,&quot;rounded&quot;:0};" vertex="1" parent="Kj-8kQu7710nb2L87hdL-3">
          <mxGeometry x="45" y="80" width="10" height="80" as="geometry" />
        </mxCell>
        <mxCell id="Kj-8kQu7710nb2L87hdL-5" value="" style="html=1;points=[[0,0,0,0,5],[0,1,0,0,-5],[1,0,0,0,5],[1,1,0,0,-5]];perimeter=orthogonalPerimeter;outlineConnect=0;targetShapes=umlLifeline;portConstraint=eastwest;newEdgeStyle={&quot;curved&quot;:0,&quot;rounded&quot;:0};" vertex="1" parent="Kj-8kQu7710nb2L87hdL-3">
          <mxGeometry x="45" y="220" width="10" height="80" as="geometry" />
        </mxCell>
        <mxCell id="Kj-8kQu7710nb2L87hdL-6" value="Database" style="shape=umlLifeline;perimeter=lifelinePerimeter;whiteSpace=wrap;html=1;container=1;dropTarget=0;collapsible=0;recursiveResize=0;outlineConnect=0;portConstraint=eastwest;newEdgeStyle={&quot;curved&quot;:0,&quot;rounded&quot;:0};" vertex="1" parent="1">
          <mxGeometry x="545" y="-790" width="100" height="300" as="geometry" />
        </mxCell>
        <mxCell id="Kj-8kQu7710nb2L87hdL-7" value="" style="html=1;points=[[0,0,0,0,5],[0,1,0,0,-5],[1,0,0,0,5],[1,1,0,0,-5]];perimeter=orthogonalPerimeter;outlineConnect=0;targetShapes=umlLifeline;portConstraint=eastwest;newEdgeStyle={&quot;curved&quot;:0,&quot;rounded&quot;:0};" vertex="1" parent="Kj-8kQu7710nb2L87hdL-6">
          <mxGeometry x="45" y="80" width="10" height="80" as="geometry" />
        </mxCell>
        <mxCell id="Kj-8kQu7710nb2L87hdL-8" value="creates and submit recipe post" style="html=1;verticalAlign=bottom;endArrow=block;curved=0;rounded=0;" edge="1" parent="1" source="Kj-8kQu7710nb2L87hdL-2">
          <mxGeometry width="80" relative="1" as="geometry">
            <mxPoint x="205" y="-680" as="sourcePoint" />
            <mxPoint x="345" y="-680" as="targetPoint" />
            <Array as="points">
              <mxPoint x="225" y="-680" />
            </Array>
          </mxGeometry>
        </mxCell>
        <mxCell id="Kj-8kQu7710nb2L87hdL-9" value="saves the recipe post" style="html=1;verticalAlign=bottom;endArrow=block;curved=0;rounded=0;" edge="1" parent="1">
          <mxGeometry width="80" relative="1" as="geometry">
            <mxPoint x="365" y="-680" as="sourcePoint" />
            <mxPoint x="585" y="-680" as="targetPoint" />
            <Array as="points" />
          </mxGeometry>
        </mxCell>
        <mxCell id="Kj-8kQu7710nb2L87hdL-10" value="confirms data saving" style="html=1;verticalAlign=bottom;endArrow=open;dashed=1;endSize=8;curved=0;rounded=0;" edge="1" parent="1">
          <mxGeometry relative="1" as="geometry">
            <mxPoint x="585" y="-660" as="sourcePoint" />
            <mxPoint x="365" y="-660" as="targetPoint" />
            <Array as="points">
              <mxPoint x="415" y="-660" />
            </Array>
          </mxGeometry>
        </mxCell>
        <mxCell id="Kj-8kQu7710nb2L87hdL-11" value="confirms post submission" style="html=1;verticalAlign=bottom;endArrow=open;dashed=1;endSize=8;curved=0;rounded=0;" edge="1" parent="1">
          <mxGeometry relative="1" as="geometry">
            <mxPoint x="355" y="-660" as="sourcePoint" />
            <mxPoint x="135" y="-660" as="targetPoint" />
            <Array as="points">
              <mxPoint x="345" y="-660" />
              <mxPoint x="185" y="-660" />
            </Array>
          </mxGeometry>
        </mxCell>
        <mxCell id="Kj-8kQu7710nb2L87hdL-12" value="Notification service" style="shape=umlLifeline;perimeter=lifelinePerimeter;whiteSpace=wrap;html=1;container=1;dropTarget=0;collapsible=0;recursiveResize=0;outlineConnect=0;portConstraint=eastwest;newEdgeStyle={&quot;curved&quot;:0,&quot;rounded&quot;:0};" vertex="1" parent="1">
          <mxGeometry x="680" y="-790" width="100" height="300" as="geometry" />
        </mxCell>
        <mxCell id="Kj-8kQu7710nb2L87hdL-13" value="" style="html=1;points=[[0,0,0,0,5],[0,1,0,0,-5],[1,0,0,0,5],[1,1,0,0,-5]];perimeter=orthogonalPerimeter;outlineConnect=0;targetShapes=umlLifeline;portConstraint=eastwest;newEdgeStyle={&quot;curved&quot;:0,&quot;rounded&quot;:0};" vertex="1" parent="Kj-8kQu7710nb2L87hdL-12">
          <mxGeometry x="45" y="210" width="10" height="80" as="geometry" />
        </mxCell>
        <mxCell id="Kj-8kQu7710nb2L87hdL-14" value="" style="endArrow=open;endFill=1;endSize=12;html=1;rounded=0;" edge="1" parent="1">
          <mxGeometry width="160" relative="1" as="geometry">
            <mxPoint x="395" y="-650" as="sourcePoint" />
            <mxPoint x="555" y="-650" as="targetPoint" />
            <Array as="points">
              <mxPoint x="475" y="-650" />
            </Array>
          </mxGeometry>
        </mxCell>
        <mxCell id="Kj-8kQu7710nb2L87hdL-15" value="" style="endArrow=open;endFill=1;endSize=12;html=1;rounded=0;" edge="1" parent="1">
          <mxGeometry width="160" relative="1" as="geometry">
            <mxPoint x="365" y="-520" as="sourcePoint" />
            <mxPoint x="725" y="-520" as="targetPoint" />
            <Array as="points" />
          </mxGeometry>
        </mxCell>
        <mxCell id="Kj-8kQu7710nb2L87hdL-16" value="notifies followers for new&amp;nbsp; post" style="edgeLabel;html=1;align=center;verticalAlign=middle;resizable=0;points=[];" vertex="1" connectable="0" parent="Kj-8kQu7710nb2L87hdL-15">
          <mxGeometry x="-0.1222" y="1" relative="1" as="geometry">
            <mxPoint as="offset" />
          </mxGeometry>
        </mxCell>
        <mxCell id="OHELBwchXuyo5eRHWz-x-1" value="post Recipe" style="text;html=1;align=center;verticalAlign=middle;resizable=0;points=[];autosize=1;strokeColor=none;fillColor=none;" vertex="1" parent="1">
          <mxGeometry x="100" y="-850" width="90" height="30" as="geometry" />
        </mxCell>
      </root>
    </mxGraphModel>
  </diagram>
  <diagram id="DEPehgygjIQE78fkr2h6" name="Page-4">
    <mxGraphModel dx="1434" dy="1954" grid="1" gridSize="10" guides="1" tooltips="1" connect="1" arrows="1" fold="1" page="1" pageScale="1" pageWidth="850" pageHeight="1100" math="0" shadow="0">
      <root>
        <mxCell id="0" />
        <mxCell id="1" parent="0" />
        <mxCell id="0a8AE3GUfDYgBRuziUu5-1" value="Follow Other Users" style="text;html=1;align=center;verticalAlign=middle;resizable=0;points=[];autosize=1;strokeColor=none;fillColor=none;" vertex="1" parent="1">
          <mxGeometry x="70" y="-721" width="130" height="30" as="geometry" />
        </mxCell>
        <mxCell id="0a8AE3GUfDYgBRuziUu5-2" value="user" style="shape=umlLifeline;perimeter=lifelinePerimeter;whiteSpace=wrap;html=1;container=1;dropTarget=0;collapsible=0;recursiveResize=0;outlineConnect=0;portConstraint=eastwest;newEdgeStyle={&quot;curved&quot;:0,&quot;rounded&quot;:0};participant=umlActor;" vertex="1" parent="1">
          <mxGeometry x="120" y="-679" width="20" height="300" as="geometry" />
        </mxCell>
        <mxCell id="0a8AE3GUfDYgBRuziUu5-3" value="" style="html=1;points=[[0,0,0,0,5],[0,1,0,0,-5],[1,0,0,0,5],[1,1,0,0,-5]];perimeter=orthogonalPerimeter;outlineConnect=0;targetShapes=umlLifeline;portConstraint=eastwest;newEdgeStyle={&quot;curved&quot;:0,&quot;rounded&quot;:0};" vertex="1" parent="0a8AE3GUfDYgBRuziUu5-2">
          <mxGeometry x="5" y="80" width="10" height="80" as="geometry" />
        </mxCell>
        <mxCell id="0a8AE3GUfDYgBRuziUu5-4" value="system" style="shape=umlLifeline;perimeter=lifelinePerimeter;whiteSpace=wrap;html=1;container=1;dropTarget=0;collapsible=0;recursiveResize=0;outlineConnect=0;portConstraint=eastwest;newEdgeStyle={&quot;curved&quot;:0,&quot;rounded&quot;:0};" vertex="1" parent="1">
          <mxGeometry x="265" y="-691" width="100" height="300" as="geometry" />
        </mxCell>
        <mxCell id="0a8AE3GUfDYgBRuziUu5-5" value="" style="html=1;points=[[0,0,0,0,5],[0,1,0,0,-5],[1,0,0,0,5],[1,1,0,0,-5]];perimeter=orthogonalPerimeter;outlineConnect=0;targetShapes=umlLifeline;portConstraint=eastwest;newEdgeStyle={&quot;curved&quot;:0,&quot;rounded&quot;:0};" vertex="1" parent="0a8AE3GUfDYgBRuziUu5-4">
          <mxGeometry x="45" y="92" width="10" height="80" as="geometry" />
        </mxCell>
        <mxCell id="0a8AE3GUfDYgBRuziUu5-6" value="" style="html=1;points=[[0,0,0,0,5],[0,1,0,0,-5],[1,0,0,0,5],[1,1,0,0,-5]];perimeter=orthogonalPerimeter;outlineConnect=0;targetShapes=umlLifeline;portConstraint=eastwest;newEdgeStyle={&quot;curved&quot;:0,&quot;rounded&quot;:0};" vertex="1" parent="0a8AE3GUfDYgBRuziUu5-4">
          <mxGeometry x="45" y="202" width="10" height="80" as="geometry" />
        </mxCell>
        <mxCell id="0a8AE3GUfDYgBRuziUu5-7" value="database" style="shape=umlLifeline;perimeter=lifelinePerimeter;whiteSpace=wrap;html=1;container=1;dropTarget=0;collapsible=0;recursiveResize=0;outlineConnect=0;portConstraint=eastwest;newEdgeStyle={&quot;curved&quot;:0,&quot;rounded&quot;:0};" vertex="1" parent="1">
          <mxGeometry x="425" y="-691" width="100" height="300" as="geometry" />
        </mxCell>
        <mxCell id="0a8AE3GUfDYgBRuziUu5-8" value="" style="html=1;points=[[0,0,0,0,5],[0,1,0,0,-5],[1,0,0,0,5],[1,1,0,0,-5]];perimeter=orthogonalPerimeter;outlineConnect=0;targetShapes=umlLifeline;portConstraint=eastwest;newEdgeStyle={&quot;curved&quot;:0,&quot;rounded&quot;:0};" vertex="1" parent="0a8AE3GUfDYgBRuziUu5-7">
          <mxGeometry x="45" y="92" width="10" height="80" as="geometry" />
        </mxCell>
        <mxCell id="0a8AE3GUfDYgBRuziUu5-9" value="notification service" style="shape=umlLifeline;perimeter=lifelinePerimeter;whiteSpace=wrap;html=1;container=1;dropTarget=0;collapsible=0;recursiveResize=0;outlineConnect=0;portConstraint=eastwest;newEdgeStyle={&quot;curved&quot;:0,&quot;rounded&quot;:0};" vertex="1" parent="1">
          <mxGeometry x="605" y="-691" width="100" height="300" as="geometry" />
        </mxCell>
        <mxCell id="0a8AE3GUfDYgBRuziUu5-10" value="" style="html=1;points=[[0,0,0,0,5],[0,1,0,0,-5],[1,0,0,0,5],[1,1,0,0,-5]];perimeter=orthogonalPerimeter;outlineConnect=0;targetShapes=umlLifeline;portConstraint=eastwest;newEdgeStyle={&quot;curved&quot;:0,&quot;rounded&quot;:0};" vertex="1" parent="0a8AE3GUfDYgBRuziUu5-9">
          <mxGeometry x="45" y="82" width="10" height="80" as="geometry" />
        </mxCell>
        <mxCell id="0a8AE3GUfDYgBRuziUu5-11" value="" style="html=1;points=[[0,0,0,0,5],[0,1,0,0,-5],[1,0,0,0,5],[1,1,0,0,-5]];perimeter=orthogonalPerimeter;outlineConnect=0;targetShapes=umlLifeline;portConstraint=eastwest;newEdgeStyle={&quot;curved&quot;:0,&quot;rounded&quot;:0};" vertex="1" parent="0a8AE3GUfDYgBRuziUu5-9">
          <mxGeometry x="45" y="202" width="10" height="80" as="geometry" />
        </mxCell>
        <mxCell id="0a8AE3GUfDYgBRuziUu5-12" value="" style="endArrow=block;endFill=1;html=1;edgeStyle=orthogonalEdgeStyle;align=left;verticalAlign=top;rounded=0;" edge="1" parent="1">
          <mxGeometry x="-1" relative="1" as="geometry">
            <mxPoint x="140" y="-559" as="sourcePoint" />
            <mxPoint x="300" y="-559" as="targetPoint" />
          </mxGeometry>
        </mxCell>
        <mxCell id="0a8AE3GUfDYgBRuziUu5-13" value="sends follow request" style="edgeLabel;html=1;align=center;verticalAlign=middle;resizable=0;points=[];" vertex="1" connectable="0" parent="0a8AE3GUfDYgBRuziUu5-12">
          <mxGeometry x="-0.3125" y="2" relative="1" as="geometry">
            <mxPoint as="offset" />
          </mxGeometry>
        </mxCell>
        <mxCell id="0a8AE3GUfDYgBRuziUu5-14" value="" style="endArrow=block;endFill=1;html=1;edgeStyle=orthogonalEdgeStyle;align=left;verticalAlign=top;rounded=0;" edge="1" parent="1">
          <mxGeometry x="-1" relative="1" as="geometry">
            <mxPoint x="315" y="-559" as="sourcePoint" />
            <mxPoint x="475" y="-559" as="targetPoint" />
            <Array as="points">
              <mxPoint x="335" y="-559" />
              <mxPoint x="335" y="-559" />
            </Array>
          </mxGeometry>
        </mxCell>
        <mxCell id="0a8AE3GUfDYgBRuziUu5-15" value="update&amp;nbsp; following&amp;nbsp;" style="text;html=1;align=center;verticalAlign=middle;resizable=0;points=[];autosize=1;strokeColor=none;fillColor=none;" vertex="1" parent="1">
          <mxGeometry x="315" y="-581" width="120" height="30" as="geometry" />
        </mxCell>
        <mxCell id="0a8AE3GUfDYgBRuziUu5-16" value="&lt;div&gt;&lt;br&gt;&lt;/div&gt;&lt;div&gt;&lt;br&gt;&lt;/div&gt;&lt;div&gt;&lt;br&gt;&lt;/div&gt;&lt;div&gt;&lt;br&gt;&lt;/div&gt;" style="html=1;verticalAlign=bottom;endArrow=open;dashed=1;endSize=8;curved=0;rounded=0;" edge="1" parent="1" source="0a8AE3GUfDYgBRuziUu5-7" target="0a8AE3GUfDYgBRuziUu5-4">
          <mxGeometry relative="1" as="geometry">
            <mxPoint x="425" y="-529.5" as="sourcePoint" />
            <mxPoint x="345" y="-529.5" as="targetPoint" />
            <Array as="points">
              <mxPoint x="365" y="-529" />
            </Array>
          </mxGeometry>
        </mxCell>
        <mxCell id="0a8AE3GUfDYgBRuziUu5-17" value="&amp;nbsp; &amp;nbsp; &amp;nbsp; &amp;nbsp; &amp;nbsp;confirms the update" style="text;html=1;align=center;verticalAlign=middle;resizable=0;points=[];autosize=1;strokeColor=none;fillColor=none;" vertex="1" parent="1">
          <mxGeometry x="285" y="-551" width="160" height="30" as="geometry" />
        </mxCell>
        <mxCell id="0a8AE3GUfDYgBRuziUu5-18" value="" style="endArrow=open;endFill=1;endSize=12;html=1;rounded=0;" edge="1" parent="1">
          <mxGeometry width="160" relative="1" as="geometry">
            <mxPoint x="322" y="-439" as="sourcePoint" />
            <mxPoint x="645" y="-439" as="targetPoint" />
            <Array as="points" />
          </mxGeometry>
        </mxCell>
        <mxCell id="0a8AE3GUfDYgBRuziUu5-19" value="sends notfication to the followed user" style="edgeLabel;html=1;align=center;verticalAlign=middle;resizable=0;points=[];" vertex="1" connectable="0" parent="0a8AE3GUfDYgBRuziUu5-18">
          <mxGeometry x="-0.1222" y="1" relative="1" as="geometry">
            <mxPoint as="offset" />
          </mxGeometry>
        </mxCell>
      </root>
    </mxGraphModel>
  </diagram>
  <diagram id="lfPU4YjCPo-PqolHEStY" name="Page-5">
    <mxGraphModel dx="1434" dy="1954" grid="1" gridSize="10" guides="1" tooltips="1" connect="1" arrows="1" fold="1" page="1" pageScale="1" pageWidth="850" pageHeight="1100" math="0" shadow="0">
      <root>
        <mxCell id="0" />
        <mxCell id="1" parent="0" />
        <mxCell id="BWXRplY5mlX_UgXAGzun-1" value="admin user management" style="text;html=1;align=center;verticalAlign=middle;resizable=0;points=[];autosize=1;strokeColor=none;fillColor=none;" vertex="1" parent="1">
          <mxGeometry x="150" y="-720" width="160" height="30" as="geometry" />
        </mxCell>
        <mxCell id="BWXRplY5mlX_UgXAGzun-2" value="admin" style="shape=umlLifeline;perimeter=lifelinePerimeter;whiteSpace=wrap;html=1;container=1;dropTarget=0;collapsible=0;recursiveResize=0;outlineConnect=0;portConstraint=eastwest;newEdgeStyle={&quot;curved&quot;:0,&quot;rounded&quot;:0};participant=umlActor;" vertex="1" parent="1">
          <mxGeometry x="195" y="-690" width="20" height="300" as="geometry" />
        </mxCell>
        <mxCell id="BWXRplY5mlX_UgXAGzun-3" value="" style="html=1;points=[[0,0,0,0,5],[0,1,0,0,-5],[1,0,0,0,5],[1,1,0,0,-5]];perimeter=orthogonalPerimeter;outlineConnect=0;targetShapes=umlLifeline;portConstraint=eastwest;newEdgeStyle={&quot;curved&quot;:0,&quot;rounded&quot;:0};" vertex="1" parent="BWXRplY5mlX_UgXAGzun-2">
          <mxGeometry x="5" y="80" width="10" height="80" as="geometry" />
        </mxCell>
        <mxCell id="BWXRplY5mlX_UgXAGzun-4" value="system" style="shape=umlLifeline;perimeter=lifelinePerimeter;whiteSpace=wrap;html=1;container=1;dropTarget=0;collapsible=0;recursiveResize=0;outlineConnect=0;portConstraint=eastwest;newEdgeStyle={&quot;curved&quot;:0,&quot;rounded&quot;:0};" vertex="1" parent="1">
          <mxGeometry x="335" y="-690" width="100" height="300" as="geometry" />
        </mxCell>
        <mxCell id="BWXRplY5mlX_UgXAGzun-5" value="" style="html=1;points=[[0,0,0,0,5],[0,1,0,0,-5],[1,0,0,0,5],[1,1,0,0,-5]];perimeter=orthogonalPerimeter;outlineConnect=0;targetShapes=umlLifeline;portConstraint=eastwest;newEdgeStyle={&quot;curved&quot;:0,&quot;rounded&quot;:0};" vertex="1" parent="BWXRplY5mlX_UgXAGzun-4">
          <mxGeometry x="45" y="80" width="10" height="80" as="geometry" />
        </mxCell>
        <mxCell id="BWXRplY5mlX_UgXAGzun-6" value="" style="html=1;points=[[0,0,0,0,5],[0,1,0,0,-5],[1,0,0,0,5],[1,1,0,0,-5]];perimeter=orthogonalPerimeter;outlineConnect=0;targetShapes=umlLifeline;portConstraint=eastwest;newEdgeStyle={&quot;curved&quot;:0,&quot;rounded&quot;:0};" vertex="1" parent="BWXRplY5mlX_UgXAGzun-4">
          <mxGeometry x="45" y="170" width="10" height="80" as="geometry" />
        </mxCell>
        <mxCell id="BWXRplY5mlX_UgXAGzun-7" value="database" style="shape=umlLifeline;perimeter=lifelinePerimeter;whiteSpace=wrap;html=1;container=1;dropTarget=0;collapsible=0;recursiveResize=0;outlineConnect=0;portConstraint=eastwest;newEdgeStyle={&quot;curved&quot;:0,&quot;rounded&quot;:0};" vertex="1" parent="1">
          <mxGeometry x="505" y="-690" width="100" height="300" as="geometry" />
        </mxCell>
        <mxCell id="BWXRplY5mlX_UgXAGzun-8" value="" style="html=1;points=[[0,0,0,0,5],[0,1,0,0,-5],[1,0,0,0,5],[1,1,0,0,-5]];perimeter=orthogonalPerimeter;outlineConnect=0;targetShapes=umlLifeline;portConstraint=eastwest;newEdgeStyle={&quot;curved&quot;:0,&quot;rounded&quot;:0};" vertex="1" parent="BWXRplY5mlX_UgXAGzun-7">
          <mxGeometry x="45" y="80" width="10" height="80" as="geometry" />
        </mxCell>
        <mxCell id="BWXRplY5mlX_UgXAGzun-9" value="select user and initiate ban or&lt;div&gt;probation&lt;/div&gt;" style="html=1;verticalAlign=bottom;endArrow=block;curved=0;rounded=0;" edge="1" parent="1" target="BWXRplY5mlX_UgXAGzun-4">
          <mxGeometry width="80" relative="1" as="geometry">
            <mxPoint x="215" y="-590" as="sourcePoint" />
            <mxPoint x="315" y="-590" as="targetPoint" />
            <Array as="points" />
          </mxGeometry>
        </mxCell>
        <mxCell id="BWXRplY5mlX_UgXAGzun-10" value="updates user status" style="html=1;verticalAlign=bottom;endArrow=block;curved=0;rounded=0;" edge="1" parent="1">
          <mxGeometry width="80" relative="1" as="geometry">
            <mxPoint x="395" y="-590" as="sourcePoint" />
            <mxPoint x="550" y="-590" as="targetPoint" />
            <Array as="points" />
          </mxGeometry>
        </mxCell>
        <mxCell id="BWXRplY5mlX_UgXAGzun-11" value="&amp;nbsp; &amp;nbsp; &amp;nbsp; confirms the user status" style="html=1;verticalAlign=bottom;endArrow=open;dashed=1;endSize=8;curved=0;rounded=0;" edge="1" parent="1" source="BWXRplY5mlX_UgXAGzun-7">
          <mxGeometry relative="1" as="geometry">
            <mxPoint x="485" y="-570" as="sourcePoint" />
            <mxPoint x="395" y="-570" as="targetPoint" />
          </mxGeometry>
        </mxCell>
        <mxCell id="BWXRplY5mlX_UgXAGzun-12" value="user" style="shape=umlLifeline;perimeter=lifelinePerimeter;whiteSpace=wrap;html=1;container=1;dropTarget=0;collapsible=0;recursiveResize=0;outlineConnect=0;portConstraint=eastwest;newEdgeStyle={&quot;curved&quot;:0,&quot;rounded&quot;:0};participant=umlActor;" vertex="1" parent="1">
          <mxGeometry x="685" y="-700" width="20" height="300" as="geometry" />
        </mxCell>
        <mxCell id="BWXRplY5mlX_UgXAGzun-13" value="" style="html=1;points=[[0,0,0,0,5],[0,1,0,0,-5],[1,0,0,0,5],[1,1,0,0,-5]];perimeter=orthogonalPerimeter;outlineConnect=0;targetShapes=umlLifeline;portConstraint=eastwest;newEdgeStyle={&quot;curved&quot;:0,&quot;rounded&quot;:0};" vertex="1" parent="BWXRplY5mlX_UgXAGzun-12">
          <mxGeometry x="5" y="170" width="10" height="80" as="geometry" />
        </mxCell>
        <mxCell id="BWXRplY5mlX_UgXAGzun-14" value="" style="endArrow=open;endFill=1;endSize=12;html=1;rounded=0;" edge="1" parent="1" source="BWXRplY5mlX_UgXAGzun-4">
          <mxGeometry width="160" relative="1" as="geometry">
            <mxPoint x="465" y="-480" as="sourcePoint" />
            <mxPoint x="685" y="-480" as="targetPoint" />
          </mxGeometry>
        </mxCell>
        <mxCell id="BWXRplY5mlX_UgXAGzun-15" value="sends notification about account restriction" style="edgeLabel;html=1;align=center;verticalAlign=middle;resizable=0;points=[];" vertex="1" connectable="0" parent="BWXRplY5mlX_UgXAGzun-14">
          <mxGeometry x="0.0483" y="1" relative="1" as="geometry">
            <mxPoint as="offset" />
          </mxGeometry>
        </mxCell>
      </root>
    </mxGraphModel>
  </diagram>
  <diagram id="Nwx-OQ9c-MWpFo-l9KWh" name="Page-6">
    <mxGraphModel dx="1434" dy="854" grid="1" gridSize="10" guides="1" tooltips="1" connect="1" arrows="1" fold="1" page="1" pageScale="1" pageWidth="850" pageHeight="1100" math="0" shadow="0">
      <root>
        <mxCell id="0" />
        <mxCell id="1" parent="0" />
        <mxCell id="cSlsvw5a3cxd35DxLMa7-1" value="message other users" style="text;html=1;align=center;verticalAlign=middle;resizable=0;points=[];autosize=1;strokeColor=none;fillColor=none;" vertex="1" parent="1">
          <mxGeometry x="40" y="40" width="140" height="30" as="geometry" />
        </mxCell>
        <mxCell id="cSlsvw5a3cxd35DxLMa7-2" value="database" style="shape=umlLifeline;perimeter=lifelinePerimeter;whiteSpace=wrap;html=1;container=1;dropTarget=0;collapsible=0;recursiveResize=0;outlineConnect=0;portConstraint=eastwest;newEdgeStyle={&quot;curved&quot;:0,&quot;rounded&quot;:0};" vertex="1" parent="1">
          <mxGeometry x="425" y="70" width="100" height="792" as="geometry" />
        </mxCell>
        <mxCell id="cSlsvw5a3cxd35DxLMa7-3" value="system" style="shape=umlLifeline;perimeter=lifelinePerimeter;whiteSpace=wrap;html=1;container=1;dropTarget=0;collapsible=0;recursiveResize=0;outlineConnect=0;portConstraint=eastwest;newEdgeStyle={&quot;curved&quot;:0,&quot;rounded&quot;:0};" vertex="1" parent="1">
          <mxGeometry x="240" y="70" width="100" height="832" as="geometry" />
        </mxCell>
        <mxCell id="cSlsvw5a3cxd35DxLMa7-4" value="" style="html=1;points=[[0,0,0,0,5],[0,1,0,0,-5],[1,0,0,0,5],[1,1,0,0,-5]];perimeter=orthogonalPerimeter;outlineConnect=0;targetShapes=umlLifeline;portConstraint=eastwest;newEdgeStyle={&quot;curved&quot;:0,&quot;rounded&quot;:0};" vertex="1" parent="cSlsvw5a3cxd35DxLMa7-3">
          <mxGeometry x="45" y="62" width="10" height="58" as="geometry" />
        </mxCell>
        <mxCell id="cSlsvw5a3cxd35DxLMa7-5" value="&amp;nbsp;user&amp;nbsp; &amp;nbsp; &amp;nbsp;A" style="shape=umlLifeline;perimeter=lifelinePerimeter;whiteSpace=wrap;html=1;container=1;dropTarget=0;collapsible=0;recursiveResize=0;outlineConnect=0;portConstraint=eastwest;newEdgeStyle={&quot;curved&quot;:0,&quot;rounded&quot;:0};participant=umlActor;" vertex="1" parent="1">
          <mxGeometry x="90" y="92" width="20" height="820" as="geometry" />
        </mxCell>
        <mxCell id="cSlsvw5a3cxd35DxLMa7-6" value="" style="html=1;points=[[0,0,0,0,5],[0,1,0,0,-5],[1,0,0,0,5],[1,1,0,0,-5]];perimeter=orthogonalPerimeter;outlineConnect=0;targetShapes=umlLifeline;portConstraint=eastwest;newEdgeStyle={&quot;curved&quot;:0,&quot;rounded&quot;:0};" vertex="1" parent="cSlsvw5a3cxd35DxLMa7-5">
          <mxGeometry x="5" y="62" width="10" height="48" as="geometry" />
        </mxCell>
        <mxCell id="cSlsvw5a3cxd35DxLMa7-7" value="user B" style="shape=umlLifeline;perimeter=lifelinePerimeter;whiteSpace=wrap;html=1;container=1;dropTarget=0;collapsible=0;recursiveResize=0;outlineConnect=0;portConstraint=eastwest;newEdgeStyle={&quot;curved&quot;:0,&quot;rounded&quot;:0};participant=umlActor;" vertex="1" parent="1">
          <mxGeometry x="745" y="62" width="20" height="790" as="geometry" />
        </mxCell>
        <mxCell id="cSlsvw5a3cxd35DxLMa7-8" value="" style="html=1;points=[[0,0,0,0,5],[0,1,0,0,-5],[1,0,0,0,5],[1,1,0,0,-5]];perimeter=orthogonalPerimeter;outlineConnect=0;targetShapes=umlLifeline;portConstraint=eastwest;newEdgeStyle={&quot;curved&quot;:0,&quot;rounded&quot;:0};" vertex="1" parent="cSlsvw5a3cxd35DxLMa7-7">
          <mxGeometry x="5" y="60" width="10" height="60" as="geometry" />
        </mxCell>
        <mxCell id="cSlsvw5a3cxd35DxLMa7-9" value="" style="html=1;points=[[0,0,0,0,5],[0,1,0,0,-5],[1,0,0,0,5],[1,1,0,0,-5]];perimeter=orthogonalPerimeter;outlineConnect=0;targetShapes=umlLifeline;portConstraint=eastwest;newEdgeStyle={&quot;curved&quot;:0,&quot;rounded&quot;:0};" vertex="1" parent="cSlsvw5a3cxd35DxLMa7-7">
          <mxGeometry x="5" y="249" width="10" height="80" as="geometry" />
        </mxCell>
        <mxCell id="cSlsvw5a3cxd35DxLMa7-10" value="" style="html=1;points=[[0,0,0,0,5],[0,1,0,0,-5],[1,0,0,0,5],[1,1,0,0,-5]];perimeter=orthogonalPerimeter;outlineConnect=0;targetShapes=umlLifeline;portConstraint=eastwest;newEdgeStyle={&quot;curved&quot;:0,&quot;rounded&quot;:0};" vertex="1" parent="cSlsvw5a3cxd35DxLMa7-7">
          <mxGeometry x="5" y="480" width="10" height="80" as="geometry" />
        </mxCell>
        <mxCell id="cSlsvw5a3cxd35DxLMa7-11" value="initiates a message&amp;nbsp; &amp;nbsp; &amp;nbsp; &amp;nbsp; &amp;nbsp; &amp;nbsp; &amp;nbsp; &amp;nbsp; &amp;nbsp; &amp;nbsp; &amp;nbsp; &amp;nbsp; &amp;nbsp; &amp;nbsp;" style="html=1;verticalAlign=bottom;endArrow=block;curved=0;rounded=0;" edge="1" parent="1" source="cSlsvw5a3cxd35DxLMa7-6" target="cSlsvw5a3cxd35DxLMa7-8">
          <mxGeometry width="80" relative="1" as="geometry">
            <mxPoint x="150" y="162" as="sourcePoint" />
            <mxPoint x="710" y="172" as="targetPoint" />
            <Array as="points">
              <mxPoint x="460" y="142" />
            </Array>
          </mxGeometry>
        </mxCell>
        <mxCell id="cSlsvw5a3cxd35DxLMa7-12" value="alt" style="shape=umlFrame;whiteSpace=wrap;html=1;pointerEvents=0;" vertex="1" parent="1">
          <mxGeometry x="200" y="200" width="300" height="200" as="geometry" />
        </mxCell>
        <mxCell id="cSlsvw5a3cxd35DxLMa7-13" value="checks user a and b are friends" style="html=1;verticalAlign=bottom;endArrow=block;curved=0;rounded=0;" edge="1" parent="1">
          <mxGeometry width="80" relative="1" as="geometry">
            <mxPoint x="300" y="162" as="sourcePoint" />
            <mxPoint x="450" y="162" as="targetPoint" />
            <Array as="points">
              <mxPoint x="400" y="162" />
            </Array>
          </mxGeometry>
        </mxCell>
        <mxCell id="cSlsvw5a3cxd35DxLMa7-14" value="&amp;nbsp; &amp;nbsp; &amp;nbsp; [if they are]" style="text;html=1;align=center;verticalAlign=middle;resizable=0;points=[];autosize=1;strokeColor=none;fillColor=none;" vertex="1" parent="1">
          <mxGeometry x="180" y="232" width="100" height="30" as="geometry" />
        </mxCell>
        <mxCell id="cSlsvw5a3cxd35DxLMa7-15" value="" style="endArrow=open;endFill=1;endSize=12;html=1;rounded=0;" edge="1" parent="1">
          <mxGeometry width="160" relative="1" as="geometry">
            <mxPoint x="300" y="266.5" as="sourcePoint" />
            <mxPoint x="745" y="266.5" as="targetPoint" />
          </mxGeometry>
        </mxCell>
        <mxCell id="cSlsvw5a3cxd35DxLMa7-16" value="sends message directly&amp;nbsp; &amp;nbsp;to b&amp;nbsp; &amp;nbsp;&amp;nbsp;" style="text;html=1;align=center;verticalAlign=middle;resizable=0;points=[];autosize=1;strokeColor=none;fillColor=none;" vertex="1" parent="1">
          <mxGeometry x="300" y="242" width="190" height="30" as="geometry" />
        </mxCell>
        <mxCell id="cSlsvw5a3cxd35DxLMa7-17" value="" style="html=1;points=[[0,0,0,0,5],[0,1,0,0,-5],[1,0,0,0,5],[1,1,0,0,-5]];perimeter=orthogonalPerimeter;outlineConnect=0;targetShapes=umlLifeline;portConstraint=eastwest;newEdgeStyle={&quot;curved&quot;:0,&quot;rounded&quot;:0};" vertex="1" parent="1">
          <mxGeometry x="470" y="132" width="10" height="60" as="geometry" />
        </mxCell>
        <mxCell id="cSlsvw5a3cxd35DxLMa7-18" value="" style="html=1;points=[[0,0,0,0,5],[0,1,0,0,-5],[1,0,0,0,5],[1,1,0,0,-5]];perimeter=orthogonalPerimeter;outlineConnect=0;targetShapes=umlLifeline;portConstraint=eastwest;newEdgeStyle={&quot;curved&quot;:0,&quot;rounded&quot;:0};" vertex="1" parent="1">
          <mxGeometry x="285" y="232" width="10" height="60" as="geometry" />
        </mxCell>
        <mxCell id="cSlsvw5a3cxd35DxLMa7-19" value="" style="html=1;points=[[0,0,0,0,5],[0,1,0,0,-5],[1,0,0,0,5],[1,1,0,0,-5]];perimeter=orthogonalPerimeter;outlineConnect=0;targetShapes=umlLifeline;portConstraint=eastwest;newEdgeStyle={&quot;curved&quot;:0,&quot;rounded&quot;:0};" vertex="1" parent="1">
          <mxGeometry x="470" y="232" width="10" height="60" as="geometry" />
        </mxCell>
        <mxCell id="cSlsvw5a3cxd35DxLMa7-20" value="&amp;nbsp; &amp;nbsp; &amp;nbsp; &amp;nbsp; &amp;nbsp; &amp;nbsp; &amp;nbsp; &amp;nbsp; &amp;nbsp; [if they are not]" style="text;html=1;align=center;verticalAlign=middle;resizable=0;points=[];autosize=1;strokeColor=none;fillColor=none;" vertex="1" parent="1">
          <mxGeometry x="130" y="320" width="160" height="30" as="geometry" />
        </mxCell>
        <mxCell id="cSlsvw5a3cxd35DxLMa7-21" value="" style="html=1;points=[[0,0,0,0,5],[0,1,0,0,-5],[1,0,0,0,5],[1,1,0,0,-5]];perimeter=orthogonalPerimeter;outlineConnect=0;targetShapes=umlLifeline;portConstraint=eastwest;newEdgeStyle={&quot;curved&quot;:0,&quot;rounded&quot;:0};" vertex="1" parent="1">
          <mxGeometry x="285" y="320" width="10" height="62" as="geometry" />
        </mxCell>
        <mxCell id="cSlsvw5a3cxd35DxLMa7-22" value="sends request to message" style="text;html=1;align=center;verticalAlign=middle;resizable=0;points=[];autosize=1;strokeColor=none;fillColor=none;" vertex="1" parent="1">
          <mxGeometry x="330" y="330" width="160" height="30" as="geometry" />
        </mxCell>
        <mxCell id="cSlsvw5a3cxd35DxLMa7-23" value="" style="html=1;verticalAlign=bottom;endArrow=block;curved=0;rounded=0;" edge="1" parent="1">
          <mxGeometry width="80" relative="1" as="geometry">
            <mxPoint x="295" y="350" as="sourcePoint" />
            <mxPoint x="740" y="350" as="targetPoint" />
          </mxGeometry>
        </mxCell>
        <mxCell id="cSlsvw5a3cxd35DxLMa7-24" value="" style="html=1;points=[[0,0,0,0,5],[0,1,0,0,-5],[1,0,0,0,5],[1,1,0,0,-5]];perimeter=orthogonalPerimeter;outlineConnect=0;targetShapes=umlLifeline;portConstraint=eastwest;newEdgeStyle={&quot;curved&quot;:0,&quot;rounded&quot;:0};" vertex="1" parent="1">
          <mxGeometry x="285" y="432" width="10" height="80" as="geometry" />
        </mxCell>
        <mxCell id="cSlsvw5a3cxd35DxLMa7-25" value="" style="html=1;points=[[0,0,0,0,5],[0,1,0,0,-5],[1,0,0,0,5],[1,1,0,0,-5]];perimeter=orthogonalPerimeter;outlineConnect=0;targetShapes=umlLifeline;portConstraint=eastwest;newEdgeStyle={&quot;curved&quot;:0,&quot;rounded&quot;:0};" vertex="1" parent="1">
          <mxGeometry x="750" y="422" width="10" height="90" as="geometry" />
        </mxCell>
        <mxCell id="cSlsvw5a3cxd35DxLMa7-26" value="alt" style="shape=umlFrame;whiteSpace=wrap;html=1;pointerEvents=0;" vertex="1" parent="1">
          <mxGeometry x="200" y="412" width="610" height="220" as="geometry" />
        </mxCell>
        <mxCell id="cSlsvw5a3cxd35DxLMa7-27" value="&amp;nbsp; &amp;nbsp; &amp;nbsp; &amp;nbsp; &amp;nbsp; &amp;nbsp; &amp;nbsp; &amp;nbsp; &amp;nbsp; [if user accept]" style="text;html=1;align=center;verticalAlign=middle;resizable=0;points=[];autosize=1;strokeColor=none;fillColor=none;" vertex="1" parent="1">
          <mxGeometry x="130" y="440" width="160" height="30" as="geometry" />
        </mxCell>
        <mxCell id="cSlsvw5a3cxd35DxLMa7-28" value="" style="html=1;points=[[0,0,0,0,5],[0,1,0,0,-5],[1,0,0,0,5],[1,1,0,0,-5]];perimeter=orthogonalPerimeter;outlineConnect=0;targetShapes=umlLifeline;portConstraint=eastwest;newEdgeStyle={&quot;curved&quot;:0,&quot;rounded&quot;:0};" vertex="1" parent="1">
          <mxGeometry x="95" y="422" width="10" height="80" as="geometry" />
        </mxCell>
        <mxCell id="cSlsvw5a3cxd35DxLMa7-29" value="" style="endArrow=open;endFill=1;endSize=12;html=1;rounded=0;" edge="1" parent="1">
          <mxGeometry width="160" relative="1" as="geometry">
            <mxPoint x="300" y="461" as="sourcePoint" />
            <mxPoint x="750" y="461" as="targetPoint" />
          </mxGeometry>
        </mxCell>
        <mxCell id="cSlsvw5a3cxd35DxLMa7-30" value="user a can send message" style="text;html=1;align=center;verticalAlign=middle;resizable=0;points=[];autosize=1;strokeColor=none;fillColor=none;" vertex="1" parent="1">
          <mxGeometry x="320" y="440" width="160" height="30" as="geometry" />
        </mxCell>
        <mxCell id="cSlsvw5a3cxd35DxLMa7-31" value="&amp;nbsp; &amp;nbsp; [else]" style="text;html=1;align=center;verticalAlign=middle;resizable=0;points=[];autosize=1;strokeColor=none;fillColor=none;" vertex="1" parent="1">
          <mxGeometry x="175" y="510" width="70" height="30" as="geometry" />
        </mxCell>
        <mxCell id="cSlsvw5a3cxd35DxLMa7-32" value="" style="html=1;points=[[0,0,0,0,5],[0,1,0,0,-5],[1,0,0,0,5],[1,1,0,0,-5]];perimeter=orthogonalPerimeter;outlineConnect=0;targetShapes=umlLifeline;portConstraint=eastwest;newEdgeStyle={&quot;curved&quot;:0,&quot;rounded&quot;:0};" vertex="1" parent="1">
          <mxGeometry x="285" y="540" width="10" height="80" as="geometry" />
        </mxCell>
        <mxCell id="cSlsvw5a3cxd35DxLMa7-33" value="" style="endArrow=open;endFill=1;endSize=12;html=1;rounded=0;" edge="1" parent="1">
          <mxGeometry width="160" relative="1" as="geometry">
            <mxPoint x="300" y="579.3299999999999" as="sourcePoint" />
            <mxPoint x="750" y="579.3299999999999" as="targetPoint" />
          </mxGeometry>
        </mxCell>
        <mxCell id="cSlsvw5a3cxd35DxLMa7-34" value="user is not able to send" style="edgeLabel;html=1;align=center;verticalAlign=middle;resizable=0;points=[];" vertex="1" connectable="0" parent="cSlsvw5a3cxd35DxLMa7-33">
          <mxGeometry x="-0.56" y="3" relative="1" as="geometry">
            <mxPoint as="offset" />
          </mxGeometry>
        </mxCell>
      </root>
    </mxGraphModel>
  </diagram>
</mxfile>
